<svg width="787" height="787" fill="none" xmlns="http://www.w3.org/2000/svg"><path d="M302.811 587.176c55.18 0 99.912 44.733 99.912 99.912 0 55.179-44.732 99.912-99.912 99.912-55.181 0-99.913-44.733-99.913-99.912 0-55.179 44.732-99.912 99.913-99.912z" fill="#61AE9F"/><path d="M402.723 687.088c0 55.179-44.733 99.912-99.912 99.912-5.766 0-11.409-.515-16.909-1.454 47.124-8.038 83.004-49.045 83.004-98.458 0-49.414-35.88-90.422-83.004-98.458a100.46 100.46 0 0116.909-1.454c55.179 0 99.912 44.733 99.912 99.912z" fill="#4C9089"/><path d="M322.024 659.42v-6.149a.769.769 0 00-.768-.768h-24.594c-7.204 0-13.065 5.861-13.065 13.065v43.039c0 7.205 5.861 13.066 13.065 13.066h24.594a.77.77 0 00.768-.769v-6.148c0-6.367 5.16-11.528 11.529-11.528 6.368 0 11.528 5.161 11.528 11.528v6.148c0 13.138-10.687 23.825-23.825 23.825h-24.594c-19.918 0-36.122-16.204-36.122-36.122v-43.039c0-19.918 16.204-36.122 36.122-36.122h24.594c13.138 0 23.825 10.688 23.825 23.825v6.149c0 6.367-5.16 11.528-11.528 11.528-6.369 0-11.529-5.161-11.529-11.528z" fill="#4A7273"/><path d="M602.547 276.68C704.417 276.68 787 359.262 787 461.133c0 101.87-82.583 184.453-184.453 184.453-101.871 0-184.453-82.583-184.453-184.453 0-101.871 82.582-184.453 184.453-184.453z" fill="#FE5E47"/><path d="M787 461.133c0 101.87-82.583 184.453-184.453 184.453-5.701 0-11.338-.272-16.908-.779 93.943-8.541 167.545-87.505 167.545-183.674 0-96.169-73.602-175.135-167.545-183.674 5.57-.506 11.207-.779 16.908-.779C704.417 276.68 787 359.262 787 461.133z" fill="#F53737"/><path d="M641.63 435.372a42.002 42.002 0 005.237-20.352c0-23.309-18.964-42.271-42.271-42.271h-40.989c-6.368 0-11.528 5.162-11.528 11.528v153.711c0 6.367 5.16 11.529 11.528 11.529h66.608c31.784 0 57.642-25.858 57.642-57.642 0-27.877-19.892-51.19-46.227-56.503zm-66.494-39.566h29.46c10.595 0 19.214 8.618 19.214 19.214 0 10.595-8.619 19.213-19.214 19.213h-29.46v-38.427zm55.079 130.654h-55.079v-69.17h55.079c19.069 0 34.585 15.514 34.585 34.585s-15.516 34.585-34.585 34.585z" fill="#DB3131"/><path d="M522.617 261.309c0 144.316-116.992 261.308-261.308 261.308C116.992 522.617 0 405.625 0 261.309 0 116.992 116.992 0 261.309 0c144.316 0 261.308 116.992 261.308 261.309z" fill="#6583FE"/><path d="M522.617 261.309c0 144.316-116.992 261.308-261.308 261.308-7.772 0-15.458-.359-23.057-1.024 133.515-11.675 238.252-123.738 238.252-260.284S371.767 12.699 238.252 1.024A264.719 264.719 0 01261.309 0c144.316 0 261.308 116.992 261.308 261.309z" fill="#2626BC"/><path d="M364.471 372.944l-30.667-91.999a.3.3 0 00-.011-.032L292.476 156.96a32.813 32.813 0 00-31.168-22.465 32.813 32.813 0 00-31.168 22.465l-41.316 123.948-.012.037-30.666 91.998c-2.013 6.039 1.25 12.569 7.291 14.582 6.044 2.011 12.569-1.253 14.583-7.292l28.115-84.344h106.349l28.116 84.344c1.61 4.831 6.108 7.885 10.935 7.885 1.208 0 2.437-.192 3.647-.594 6.039-2.011 9.303-8.539 7.289-14.58zM215.819 272.835l36.194-108.583a9.786 9.786 0 019.295-6.7 9.784 9.784 0 019.295 6.699l36.194 108.584h-90.978z" fill="#2626BC"/></svg>