<svg width="216" height="216" fill="none" xmlns="http://www.w3.org/2000/svg"><path d="M185 89.415c0-23.072-34.25-41.776-76.5-41.776S32 66.343 32 89.415c0 3.73.896 7.345 2.576 10.785 2.99 6.123 3.736 13.097 2.252 19.748a41.848 41.848 0 00-.996 8.455c-.369 23.253 18.516 42.452 41.771 42.452 17.464 0 32.424-10.718 38.664-25.934 3.427-8.357 10.628-14.619 19.47-16.459C164.538 122.469 185 107.248 185 89.415z" fill="url(#paint0_linear)"/><path opacity=".1" d="M148.871 66.783a1.493 1.493 0 01-1.056-2.55l4.744-4.744a1.495 1.495 0 012.113 2.113l-4.744 4.744a1.491 1.491 0 01-1.057.437zm-53.051 0a1.49 1.49 0 01-1.057-.438l-4.744-4.744a1.494 1.494 0 112.113-2.113l4.744 4.744a1.494 1.494 0 01-1.056 2.551zm70.748 26.526h-6.709a1.494 1.494 0 010-2.988h6.709a1.494 1.494 0 010 2.988zm-81.735 0h-6.71a1.494 1.494 0 010-2.988h6.71a1.494 1.494 0 010 2.988zm37.512-37.513c-.825 0-1.494-.67-1.494-1.494v-6.71a1.494 1.494 0 012.989 0v6.71c0 .825-.669 1.494-1.495 1.494zM82.763 128.8h-28.56a5.264 5.264 0 00-5.265 5.265v39.64a5.265 5.265 0 005.264 5.265h28.56a5.265 5.265 0 005.265-5.265v-39.64a5.265 5.265 0 00-5.264-5.265zm39.583-68.123c-16.709 0-30.24 13.463-30.321 30.172-.044 9.024 3.855 17.137 10.073 22.718 5.01 4.497 8.388 10.459 9.604 16.963a5.393 5.393 0 00-2.649 4.642v11.67a5.398 5.398 0 004.019 5.216v7.789a3.022 3.022 0 006.044 0v-7.604h6.459v7.604a3.022 3.022 0 006.044 0v-7.789a5.398 5.398 0 004.019-5.216v-11.67a5.393 5.393 0 00-2.649-4.642c1.215-6.504 4.592-12.465 9.602-16.961 6.185-5.551 10.076-13.606 10.076-22.57 0-16.746-13.575-30.321-30.321-30.322z" fill="#00C"/><path d="M82.763 170.903h-28.56a5.265 5.265 0 01-5.265-5.265v-39.641a5.264 5.264 0 015.264-5.264h28.56a5.264 5.264 0 015.265 5.264v39.641a5.265 5.265 0 01-5.264 5.265z" fill="#fff"/><path d="M74.098 120.732v1.57a5.615 5.615 0 01-11.231 0v-1.57h11.231zm1.71 20.178v14.706a7.325 7.325 0 11-14.652 0V140.91a7.326 7.326 0 017.328-7.327c2.023 0 3.855.819 5.178 2.146a7.295 7.295 0 012.146 5.181z" fill="#6583FE"/><path d="M68.473 133.593a7.325 7.325 0 10.001 14.65 7.325 7.325 0 00-.001-14.65z" fill="#fff"/><path d="M68.467 149.721a8.763 8.763 0 01-6.236-2.584c-3.439-3.438-3.439-9.033 0-12.472 3.438-3.439 9.033-3.438 12.472 0a8.76 8.76 0 012.583 6.236 8.76 8.76 0 01-2.583 6.236 8.76 8.76 0 01-6.236 2.584zm-4.124-12.943a5.838 5.838 0 000 8.247 5.796 5.796 0 004.124 1.708 5.796 5.796 0 004.124-1.708 5.795 5.795 0 001.708-4.124 5.791 5.791 0 00-1.708-4.123 5.838 5.838 0 00-8.248 0z" fill="#00C"/><path d="M119.116 140.296v11.483a3.021 3.021 0 01-6.044 0v-11.483h6.044zm12.503 0v11.483a3.021 3.021 0 01-6.044 0v-11.483h6.044zm-29.521-34.797c5.891 5.288 9.528 12.6 10.044 20.44h20.408c.516-7.839 4.151-15.152 10.042-20.438 6.185-5.55 10.075-13.606 10.075-22.57 0-16.747-13.575-30.322-30.321-30.322-16.709 0-30.24 13.463-30.321 30.172-.044 9.024 3.855 17.137 10.073 22.718z" fill="#fff"/><path d="M128.004 122.484h-11.316l1.013-5.005 2.074-10.262h5.142l2.074 10.262 1.013 5.005z" fill="#6583FE"/><path d="M130.238 144.175h-15.784a5.401 5.401 0 01-5.401-5.401v-11.671a5.401 5.401 0 015.401-5.401h15.784a5.401 5.401 0 015.401 5.401v11.671a5.4 5.4 0 01-5.401 5.401z" fill="#fff"/><path d="M109.053 128.67h26.586v4.269h-26.586v-4.269zm20.674-24.624c0 3.628-1.64 6.872-4.218 9.031a4.93 4.93 0 01-6.326.001 11.751 11.751 0 01-4.22-9.032c0-3.627 1.64-6.87 4.219-9.029a4.932 4.932 0 016.328 0 11.746 11.746 0 014.217 9.029z" fill="#6583FE"/><path d="M128.663 103.312c-2.106 0-3.256-.925-4.096-1.6-.729-.587-1.169-.941-2.222-.941s-1.493.354-2.222.941c-.84.676-1.989 1.6-4.095 1.6s-3.256-.925-4.096-1.6c-.729-.587-1.169-.941-2.222-.941a1.494 1.494 0 010-2.988c2.106 0 3.256.925 4.096 1.6.729.587 1.169.941 2.222.941 1.052 0 1.493-.354 2.221-.94.84-.676 1.99-1.601 4.096-1.601 2.105 0 3.255.925 4.095 1.6.729.587 1.169.941 2.222.941s1.494-.354 2.223-.94c.84-.676 1.989-1.601 4.095-1.601a1.494 1.494 0 010 2.988c-1.053 0-1.493.354-2.222.941-.84.675-1.989 1.6-4.095 1.6zm-45.9 15.926h-28.56a6.767 6.767 0 00-6.76 6.759v39.64a6.766 6.766 0 006.76 6.759h14.852a1.494 1.494 0 000-2.988H54.202a3.775 3.775 0 01-3.77-3.771v-39.64a3.775 3.775 0 013.77-3.771h28.56a3.775 3.775 0 013.771 3.771v39.64a3.775 3.775 0 01-3.77 3.771h-3.548a1.494 1.494 0 000 2.988h3.548a6.766 6.766 0 006.758-6.759v-39.64a6.766 6.766 0 00-6.758-6.759zm-6.57-10.667a1.494 1.494 0 00-.503-2.052 13.896 13.896 0 00-7.208-2.013c-2.544 0-5.036.696-7.207 2.013a1.494 1.494 0 101.55 2.555 10.902 10.902 0 015.657-1.58c1.997 0 3.954.546 5.658 1.58a1.494 1.494 0 002.053-.503zm-7.711 1.241c-1.24 0-2.453.339-3.511.981a1.495 1.495 0 001.55 2.555 3.85 3.85 0 013.923 0 1.494 1.494 0 101.55-2.555 6.768 6.768 0 00-3.512-.981z" fill="#00C"/><path d="M59.405 104.577a17.501 17.501 0 019.078-2.535c3.204 0 6.343.877 9.077 2.535a1.494 1.494 0 101.55-2.555 20.485 20.485 0 00-10.628-2.968 20.494 20.494 0 00-10.627 2.968 1.495 1.495 0 001.55 2.555zm62.941-53.462c-6.928 0-13.51 2.181-19.036 6.308a1.494 1.494 0 101.788 2.394c5.005-3.738 10.97-5.714 17.248-5.714 15.895 0 28.827 12.932 28.827 28.827a28.875 28.875 0 01-9.579 21.458c-4.85 4.352-8.18 9.914-9.686 16.026a6.863 6.863 0 00-1.67-.206h-15.785c-.577 0-1.138.073-1.674.207-1.506-6.112-4.833-11.675-9.683-16.028a28.86 28.86 0 01-9.577-21.6 28.71 28.71 0 014.912-15.975 1.494 1.494 0 00-2.478-1.67 31.693 31.693 0 00-5.422 17.632A31.855 31.855 0 00101.1 106.61c4.578 4.108 7.665 9.398 8.944 15.197a6.882 6.882 0 00-2.485 5.295v11.671a6.903 6.903 0 004.019 6.264v6.74a4.522 4.522 0 004.517 4.517 4.522 4.522 0 004.517-4.517v-6.11h3.469v6.11a4.522 4.522 0 004.517 4.517 4.522 4.522 0 004.517-4.517v-6.74a6.904 6.904 0 004.018-6.264v-11.671a6.884 6.884 0 00-2.483-5.294c1.279-5.799 4.364-11.089 8.941-15.196a31.867 31.867 0 0010.571-23.682c0-17.544-14.273-31.816-31.816-31.816zm-4.723 100.664a1.53 1.53 0 01-1.529 1.528 1.53 1.53 0 01-1.529-1.528v-6.11h3.058v6.11zm10.974 1.528a1.53 1.53 0 01-1.528-1.528v-6.11h3.057v6.11a1.53 1.53 0 01-1.529 1.528zm5.548-14.533a3.912 3.912 0 01-3.907 3.907h-15.785a3.911 3.911 0 01-3.906-3.907v-11.671a3.91 3.91 0 013.906-3.906h15.785a3.911 3.911 0 013.907 3.906v11.671zm18.414-87.354l-4.744 4.744a1.493 1.493 0 102.113 2.113l4.744-4.744a1.493 1.493 0 10-2.113-2.113zM95.82 58.715a1.494 1.494 0 001.057-2.55l-4.745-4.745a1.494 1.494 0 00-2.113 2.113l4.744 4.744a1.49 1.49 0 001.057.438zm70.748 23.537h-6.709a1.494 1.494 0 000 2.989h6.709a1.494 1.494 0 000-2.989zM78.124 85.24h6.709a1.494 1.494 0 000-2.988h-6.71a1.494 1.494 0 000 2.989zm44.221-37.513c.826 0 1.495-.669 1.495-1.494v-6.71a1.494 1.494 0 00-2.989 0v6.71c0 .825.669 1.494 1.494 1.494z" fill="#00C"/><g opacity=".1" fill="#00C"><path opacity=".1" d="M74.914 117.359c-.264 0-.532-.07-.774-.217a10.912 10.912 0 00-11.315 0 1.493 1.493 0 11-1.55-2.555 13.895 13.895 0 017.208-2.013c2.544 0 5.036.696 7.207 2.013a1.495 1.495 0 01-.776 2.772zm-3.696 4.275c-.265 0-.532-.07-.774-.217a3.847 3.847 0 00-3.924 0 1.494 1.494 0 01-1.55-2.555 6.768 6.768 0 017.024 0 1.494 1.494 0 01-.776 2.772z"/><path opacity=".1" d="M78.333 112.862c-.264 0-.531-.07-.773-.217a17.501 17.501 0 00-9.077-2.535c-3.205 0-6.344.877-9.078 2.535a1.493 1.493 0 11-1.55-2.555 20.485 20.485 0 0110.628-2.968c3.751 0 7.426 1.026 10.627 2.968a1.495 1.495 0 01-.777 2.772z"/></g><path d="M169.855 72.736a1.49 1.49 0 01-1.057-.438l-3.287-3.287a1.495 1.495 0 010-2.113l3.287-3.287a1.494 1.494 0 012.113 0l3.287 3.287c.584.584.584 1.53 0 2.113l-3.287 3.288a1.488 1.488 0 01-1.056.437zm-1.174-4.781l1.174 1.174 1.174-1.174-1.174-1.174-1.174 1.174zM57.136 92.031a1.49 1.49 0 01-1.057-.437l-3.287-3.287a1.494 1.494 0 010-2.113l3.287-3.288a1.494 1.494 0 012.113 0l3.287 3.288c.584.583.584 1.53 0 2.113l-3.287 3.287a1.49 1.49 0 01-1.056.437zm-1.174-4.781l1.174 1.174 1.174-1.174-1.174-1.174-1.174 1.174zm92.91 58.44c-.383 0-.765-.145-1.057-.437l-3.287-3.287a1.493 1.493 0 010-2.113l3.287-3.287a1.493 1.493 0 012.113 0l3.287 3.287a1.493 1.493 0 010 2.113l-3.287 3.287a1.49 1.49 0 01-1.056.437zm-1.174-4.781l1.174 1.174 1.174-1.174-1.174-1.174-1.174 1.174zM72.713 68.702a3.893 3.893 0 01-3.888-3.889 3.893 3.893 0 013.888-3.888 3.893 3.893 0 013.889 3.888 3.893 3.893 0 01-3.889 3.889zm0-4.789a.901.901 0 000 1.8.901.901 0 000-1.8zm87.146 68.645a3.892 3.892 0 01-3.888-3.888 3.893 3.893 0 013.888-3.889 3.893 3.893 0 013.888 3.889 3.892 3.892 0 01-3.888 3.888zm0-4.788a.9.9 0 10.001 1.801.9.9 0 00-.001-1.801z" fill="#6583FE"/><circle cx="108" cy="108" r="106.5" stroke="#00C" stroke-width="3"/><defs><linearGradient id="paint0_linear" x1="108.5" y1="30.871" x2="108.5" y2="220.502" gradientUnits="userSpaceOnUse"><stop stop-color="#D2DEFF" stop-opacity="0"/><stop offset="1" stop-color="#B7C5FF"/></linearGradient></defs></svg>