<svg width="216" height="216" fill="none" xmlns="http://www.w3.org/2000/svg"><path d="M139.946 114.385c-16.961 0-30.711-13.75-30.711-30.71V64.18c0-17.772-14.408-32.18-32.181-32.18-17.774 0-32.182 14.408-32.182 32.181v25.746c0 52.507 42.566 95.073 95.074 95.073 17.773 0 32.181-14.408 32.181-32.181v-6.253c0-17.773-14.408-32.181-32.181-32.181z" fill="url(#paint0_linear)"/><path opacity=".1" d="M167.082 121.659V70.645a4.48 4.48 0 00-4.482-4.482H54.4a4.48 4.48 0 00-4.483 4.483v51.013c-2.673.272-4.769 2.636-4.769 5.388v25.072c0 11.218 9.094 20.311 20.311 20.311H77.63c11.218 0 20.311-9.093 20.311-20.311v-16.048h21.118v16.048c0 11.218 9.093 20.311 20.311 20.311h12.171c11.217 0 20.311-9.093 20.311-20.311v-25.072c0-2.752-2.096-5.115-4.77-5.388z" fill="#2626BC"/><path d="M167.082 62.577v60.943a4.48 4.48 0 01-4.482 4.483H54.4a4.48 4.48 0 01-4.483-4.483V62.577a4.48 4.48 0 014.483-4.482h108.2a4.48 4.48 0 014.482 4.482z" fill="#fff"/><path d="M108.5 59.055v56.604a2.99 2.99 0 01-2.989 2.989H62.779a2.99 2.99 0 01-2.988-2.989V54.573a2.99 2.99 0 012.988-2.988h38.25a7.47 7.47 0 017.471 7.47z" fill="#fff"/><path d="M67.97 111.787h30.519c.825 0 1.494-.669 1.494-1.494v-14.22c0-.826-.669-1.495-1.494-1.495H67.97c-.825 0-1.494.67-1.494 1.495v14.22c0 .825.669 1.494 1.494 1.494z" fill="#6583FE"/><path d="M111.488 118.648h42.732a2.988 2.988 0 002.988-2.988V54.574a2.988 2.988 0 00-2.988-2.989h-38.25a7.47 7.47 0 00-7.47 7.471v56.604a2.988 2.988 0 002.988 2.988z" fill="#fff"/><path d="M157.209 85.49V54.575a2.989 2.989 0 00-2.989-2.989h-38.25a7.47 7.47 0 00-7.47 7.471V85.49h48.709z" fill="#6583FE"/><path d="M129.95 91.739h-13.005a1.494 1.494 0 110-2.989h13.005a1.494 1.494 0 010 2.989zm0 5.828h-13.005a1.494 1.494 0 110-2.989h13.005a1.494 1.494 0 010 2.989zm0 5.828h-13.005a1.495 1.495 0 010-2.989h13.005a1.494 1.494 0 010 2.989zm18.814-11.656h-13.005a1.494 1.494 0 010-2.989h13.005a1.494 1.494 0 010 2.989zm0 5.828h-13.005a1.494 1.494 0 010-2.989h13.005a1.494 1.494 0 010 2.989zm0 5.828h-13.005a1.495 1.495 0 010-2.989h13.005a1.494 1.494 0 010 2.989z" fill="#2626BC"/><path d="M113.38 157.257h-.896v-.896a1.494 1.494 0 10-2.988 0v.896h-.897a1.494 1.494 0 000 2.989h.897v.896a1.494 1.494 0 102.988 0v-.896h.896a1.495 1.495 0 100-2.989zM169.473 45.99h-.897v-.897a1.493 1.493 0 10-2.988 0v.897h-.896a1.493 1.493 0 100 2.988h.896v.897a1.494 1.494 0 102.988 0v-.897h.897a1.494 1.494 0 000-2.988zm-46.928 126.009a1.49 1.49 0 01-1.057-.437l-1.334-1.334-1.334 1.334a1.495 1.495 0 01-2.113-2.113l2.391-2.391a1.495 1.495 0 012.113 0l2.39 2.391a1.493 1.493 0 01-1.056 2.55zm-43.33 4.184a1.49 1.49 0 01-1.057-.438l-1.334-1.334-1.334 1.334a1.493 1.493 0 11-2.113-2.112l2.39-2.391a1.493 1.493 0 012.114 0l2.39 2.391a1.493 1.493 0 01-1.056 2.55zM110.89 45.392c-.382 0-.765-.145-1.056-.437L108.5 43.62l-1.334 1.334a1.494 1.494 0 11-2.113-2.113l2.39-2.39a1.494 1.494 0 012.113 0l2.391 2.39a1.493 1.493 0 01-1.057 2.55z" fill="#6583FE"/><path d="M119.058 128.005v16.046c0 11.218 9.094 20.311 20.311 20.311h12.171c11.218 0 20.311-9.093 20.311-20.311v-25.072c0-2.959-2.421-5.472-5.38-5.417a5.28 5.28 0 00-5.178 5.279v-3.387a5.279 5.279 0 00-10.559 0v-2.191a5.28 5.28 0 10-10.559 0V99.356c0-2.959-2.421-5.472-5.38-5.416a5.28 5.28 0 00-5.178 5.278v28.787h-10.559zm-21.117 0v16.046c0 11.218-9.093 20.311-20.31 20.311H65.458c-11.217 0-20.31-9.093-20.31-20.311v-25.072c0-2.959 2.42-5.472 5.38-5.417a5.28 5.28 0 015.178 5.279v-3.387a5.279 5.279 0 1110.559 0v-2.191a5.28 5.28 0 1110.558 0V99.356c0-2.959 2.422-5.472 5.38-5.416a5.28 5.28 0 015.179 5.278v28.787H97.94z" fill="#fff"/><path d="M171.249 114.006a6.765 6.765 0 00-2.672-1.627V62.578a5.983 5.983 0 00-5.976-5.977h-3.898v-2.027a4.488 4.488 0 00-4.483-4.483h-10.369a1.494 1.494 0 100 2.988h10.369c.824 0 1.494.67 1.494 1.495v54.121a6.739 6.739 0 00-4.146 1.652 6.782 6.782 0 00-6.113-3.858 6.736 6.736 0 00-3.785 1.159v-8.292a7.014 7.014 0 00-2.096-4.973c-1.308-1.283-3.014-1.972-4.807-1.938-3.664.07-6.644 3.107-6.644 6.773v17.936h-16.635a1.496 1.496 0 01-1.494-1.494V59.056a5.983 5.983 0 015.976-5.977h18.737a1.494 1.494 0 100-2.988H115.97a8.965 8.965 0 00-7.471 4.017 8.961 8.961 0 00-7.47-4.017h-38.25a4.488 4.488 0 00-4.482 4.483V56.6h-3.898a5.983 5.983 0 00-5.977 5.977v49.809c-.986.316-1.9.86-2.672 1.619a7.014 7.014 0 00-2.096 4.973v25.072c0 12.023 9.782 21.805 21.805 21.805H77.63c12.024 0 21.805-9.781 21.805-21.805v-14.552h18.129v14.552c0 12.024 9.782 21.805 21.806 21.805h12.171c12.023 0 21.805-9.781 21.805-21.805v-25.072a7.01 7.01 0 00-2.097-4.973zm-8.648-54.416a2.991 2.991 0 012.988 2.988v49.567a6.733 6.733 0 00-3.103 1.308 6.81 6.81 0 00-3.783-4.215V59.59h3.898zm-51.113 60.552h16.635v6.369H88.877v-6.369h16.634a4.457 4.457 0 002.988-1.151 4.462 4.462 0 002.989 1.151zM54.398 59.59h3.899v49.648a6.806 6.806 0 00-3.783 4.215 6.741 6.741 0 00-3.104-1.308V62.578a2.992 2.992 0 012.99-2.988zm42.05 84.461c0 10.376-8.442 18.817-18.818 18.817H65.46c-10.376 0-18.818-8.441-18.818-18.817v-25.072c0-1.056.438-2.091 1.202-2.84.713-.701 1.63-1.083 2.589-1.083h.068a3.804 3.804 0 013.712 3.785v8.965a1.494 1.494 0 002.988 0v-12.352a3.79 3.79 0 013.785-3.785 3.79 3.79 0 013.786 3.785v12.352a1.494 1.494 0 002.988 0v-14.543a3.79 3.79 0 013.785-3.786 3.79 3.79 0 013.785 3.786v14.543a1.494 1.494 0 002.989 0v-28.45a4.01 4.01 0 011.2-2.84 3.712 3.712 0 012.658-1.083c2.047.039 3.712 1.737 3.712 3.785v10.286a1.494 1.494 0 002.988 0V99.218c0-3.666-2.98-6.704-6.644-6.772-1.797-.046-3.5.654-4.807 1.937a7.013 7.013 0 00-2.096 4.973v8.292a6.738 6.738 0 00-3.785-1.159 6.783 6.783 0 00-6.114 3.858 6.747 6.747 0 00-4.146-1.66V54.574c0-.824.67-1.494 1.494-1.494h38.25a5.983 5.983 0 015.977 5.976v56.604c0 .823-.671 1.494-1.495 1.494H87.383c-.825 0-1.494.669-1.494 1.494v23.053a1.494 1.494 0 002.988 0v-12.202h7.57v14.552zm73.909 0c0 10.376-8.441 18.817-18.816 18.817H139.37c-10.376 0-18.817-8.441-18.817-18.817v-14.552h7.57v12.202a1.494 1.494 0 002.988 0V99.218a3.804 3.804 0 013.78-3.785c.959 0 1.876.383 2.59 1.083a4.01 4.01 0 011.201 2.84v28.45a1.494 1.494 0 002.988 0v-14.543a3.791 3.791 0 013.786-3.786 3.79 3.79 0 013.784 3.786v14.543a1.494 1.494 0 002.989 0v-12.352a3.79 3.79 0 013.785-3.785 3.79 3.79 0 013.785 3.785v12.352a1.494 1.494 0 002.989 0v-8.965a3.803 3.803 0 013.712-3.785 3.723 3.723 0 012.657 1.083 4.008 4.008 0 011.201 2.84v25.072h-.001z" fill="#2626BC"/><path d="M129.665 66.04v7.266a.897.897 0 001.349.774l6.223-3.633a.897.897 0 000-1.549l-6.223-3.633a.897.897 0 00-1.349.774z" fill="#fff"/><path d="M84.145 89.402c-8.468 0-15.357-6.89-15.357-15.357 0-8.469 6.889-15.358 15.357-15.358s15.358 6.89 15.358 15.358-6.89 15.357-15.358 15.357zm0-27.726c-6.82 0-12.369 5.548-12.369 12.369 0 6.82 5.549 12.37 12.37 12.37 6.82 0 12.368-5.55 12.368-12.37 0-6.82-5.548-12.37-12.369-12.37z" fill="#2626BC"/><path d="M84.145 89.402c-4.91 0-7.56-7.912-7.56-15.357 0-7.445 2.65-15.358 7.56-15.358 4.911 0 7.56 7.913 7.56 15.358s-2.649 15.357-7.56 15.357zm0-27.726c-1.864 0-4.572 4.818-4.572 12.369 0 3.502.587 6.77 1.652 9.204.854 1.952 1.973 3.165 2.92 3.165 1.864 0 4.572-4.818 4.572-12.369 0-3.502-.586-6.77-1.65-9.204-.855-1.953-1.974-3.165-2.922-3.165z" fill="#2626BC"/><path d="M84.145 71.166c-4.889 0-9.49-1.09-12.308-2.915a1.494 1.494 0 111.625-2.508c2.354 1.525 6.348 2.435 10.683 2.435 4.333 0 8.457-.953 10.763-2.487a1.494 1.494 0 011.655 2.489c-2.811 1.87-7.454 2.986-12.418 2.986zM72.522 82.671a1.493 1.493 0 01-.835-2.735c2.81-1.886 7.467-3.013 12.458-3.013 4.89 0 9.49 1.09 12.308 2.915a1.494 1.494 0 11-1.624 2.508c-2.354-1.525-6.348-2.435-10.684-2.435-4.355 0-8.49.96-10.791 2.506a1.489 1.489 0 01-.832.254z" fill="#2626BC"/><circle cx="108" cy="108" r="106.5" stroke="#00C" stroke-width="3"/><defs><linearGradient id="paint0_linear" x1="183.353" y1="65.251" x2="21.97" y2="158.495" gradientUnits="userSpaceOnUse"><stop stop-color="#D2DEFF" stop-opacity="0"/><stop offset="1" stop-color="#B7C5FF"/></linearGradient></defs></svg>