<svg width="216" height="216" fill="none" xmlns="http://www.w3.org/2000/svg"><path d="M154.864 78.364c-8.962 0-16.227-7.265-16.227-16.228C138.637 45.492 125.144 32 108.5 32S78.364 45.492 78.364 62.136c0 8.962-7.265 16.227-16.228 16.227C45.492 78.364 32 91.856 32 108.5s13.492 30.136 30.136 30.136c8.962 0 16.227 7.265 16.227 16.227C78.364 171.508 91.856 185 108.5 185s30.136-13.492 30.136-30.136c0-8.962 7.265-16.227 16.227-16.227C171.508 138.636 185 125.144 185 108.5s-13.492-30.136-30.136-30.136z" fill="url(#paint0_linear)"/><path opacity=".1" d="M74.795 170.906V61.741a4.928 4.928 0 014.928-4.928h60.42a4.929 4.929 0 014.929 4.928v109.165a4.93 4.93 0 01-4.929 4.929h-60.42a4.929 4.929 0 01-4.928-4.929z" fill="#2626BC"/><path d="M74.795 162.036V52.87a4.928 4.928 0 014.928-4.928h60.42a4.929 4.929 0 014.929 4.928v109.166a4.93 4.93 0 01-4.929 4.928h-60.42a4.929 4.929 0 01-4.928-4.928z" fill="#6583FE"/><path d="M74.795 57.8h70.276v99.306H74.795V57.8z" fill="#fff"/><path d="M104.355 114.371h-18.39a1.567 1.567 0 01-1.568-1.567v-18.39c0-.866.702-1.568 1.567-1.568h18.391c.866 0 1.567.702 1.567 1.567v18.391c0 .866-.701 1.567-1.567 1.567z" fill="#6583FE"/><path d="M145.071 157.106h-43.955v-46.532c0-.5.119-.992.348-1.437L121.7 69.883c.584-1.132 2.203-1.132 2.787 0l20.236 39.254c.229.444.348.937.348 1.437v46.532z" fill="#fff"/><path d="M134.16 88.647c-2.947 1.988-6.821 3.194-11.066 3.194-4.247 0-8.122-1.207-11.069-3.194l9.674-18.765c.586-1.131 2.204-1.131 2.787 0l9.674 18.765zm-33.044 68.459h14.652v-39.967a7.326 7.326 0 00-14.652 0v39.967z" fill="#6583FE"/><path d="M117.262 158.6h-17.64v-41.461c0-4.864 3.957-8.82 8.82-8.82s8.82 3.956 8.82 8.82V158.6zm-14.652-2.988h11.664v-38.473a5.839 5.839 0 00-5.832-5.832 5.838 5.838 0 00-5.832 5.832v38.473z" fill="#2626BC"/><path d="M115.768 157.106h14.652v-39.967a7.326 7.326 0 00-14.652 0v39.967z" fill="#fff"/><path d="M131.914 158.6h-17.64v-41.461c0-4.864 3.957-8.82 8.82-8.82 4.864 0 8.82 3.956 8.82 8.82V158.6zm-14.652-2.988h11.663v-38.473a5.838 5.838 0 00-5.831-5.832 5.838 5.838 0 00-5.832 5.832v38.473z" fill="#2626BC"/><path d="M130.42 157.106h14.652v-39.967a7.326 7.326 0 00-14.652 0v39.967z" fill="#6583FE"/><path d="M146.566 158.6h-17.64v-41.461c0-4.864 3.956-8.82 8.82-8.82 4.863 0 8.82 3.956 8.82 8.82V158.6zm-14.652-2.988h11.663v-38.473a5.838 5.838 0 00-5.831-5.832 5.838 5.838 0 00-5.832 5.832v38.473z" fill="#2626BC"/><path d="M146.565 157.106h-2.988v-46.532c0-.261-.063-.521-.182-.752l-20.236-39.255c-.012-.022-.021-.04-.065-.04-.045 0-.054.018-.066.04l-20.236 39.255a1.652 1.652 0 00-.182.752v46.532h-2.988v-46.532c0-.735.178-1.468.514-2.121l20.236-39.255a3.05 3.05 0 012.721-1.659 3.05 3.05 0 012.721 1.66l20.236 39.253c.337.653.515 1.387.515 2.122v46.532z" fill="#2626BC"/><path d="M140.143 168.458h-38.426a1.494 1.494 0 010-2.988h38.426a3.437 3.437 0 003.434-3.434V72.432a1.494 1.494 0 012.989 0v89.604a6.43 6.43 0 01-6.423 6.422zm-47.571 0H79.723a6.43 6.43 0 01-6.422-6.422V52.87a6.43 6.43 0 016.422-6.422h60.42a6.43 6.43 0 016.422 6.422v10.417a1.494 1.494 0 11-2.988 0V52.87a3.438 3.438 0 00-3.434-3.434h-60.42a3.438 3.438 0 00-3.434 3.434v109.166a3.438 3.438 0 003.434 3.434h12.85a1.494 1.494 0 110 2.988z" fill="#2626BC"/><path d="M94.128 79.401l-4.374-2.98-4.374 2.98c-1.09.743-2.567-.038-2.567-1.357V57.8h13.883v20.244c0 1.32-1.478 2.1-2.568 1.357z" fill="#6583FE"/><path d="M126.15 54.97a1.439 1.439 0 100-2.877 1.439 1.439 0 000 2.877zm4.876 0a1.439 1.439 0 100-2.877 1.439 1.439 0 000 2.877z" fill="#2626BC"/><path d="M63.99 64.596h-1.01v-1.012a1.494 1.494 0 10-2.989 0v1.012H58.98a1.494 1.494 0 100 2.988h1.011v1.011a1.494 1.494 0 102.988 0v-1.011h1.012a1.494 1.494 0 100-2.988zM60.52 85.49h-1.012v-1.01a1.494 1.494 0 10-2.988 0v1.01h-1.012a1.494 1.494 0 100 2.989h1.012v1.011a1.494 1.494 0 102.988 0v-1.01h1.012a1.494 1.494 0 100-2.988zm98.084 14.755h-1.011v-1.012a1.494 1.494 0 00-2.988 0v1.012h-1.012a1.494 1.494 0 000 2.988h1.012v1.011a1.494 1.494 0 102.988 0v-1.011h1.011a1.494 1.494 0 100-2.988zm0-11.766c-.382 0-.765-.146-1.056-.438l-1.449-1.449-1.449 1.45a1.494 1.494 0 01-2.113-2.114l2.506-2.505a1.493 1.493 0 012.112 0l2.506 2.505a1.495 1.495 0 01-1.057 2.551zm-92.108 61.773c-.382 0-.765-.146-1.056-.438l-1.45-1.449-1.449 1.449a1.493 1.493 0 11-2.113-2.113l2.506-2.505a1.493 1.493 0 012.113 0l2.505 2.505a1.494 1.494 0 01-1.056 2.551z" fill="#6583FE"/><path d="M118.163 148.758H87.085a1.494 1.494 0 01-1.494-1.494v-6.536c0-.825.669-1.494 1.494-1.494h31.078c.825 0 1.494.669 1.494 1.494v6.536c0 .825-.669 1.494-1.494 1.494z" fill="#fff"/><path d="M118.163 150.252H87.085a2.992 2.992 0 01-2.989-2.988v-6.536a2.991 2.991 0 012.989-2.988h31.078a2.99 2.99 0 012.988 2.988v6.536a2.991 2.991 0 01-2.988 2.988zm-31.078-9.524v6.536h31.08l-.002-6.536H87.085zm14.797-13.836H87.085a1.494 1.494 0 110-2.988h14.797a1.494 1.494 0 110 2.988zm8.069 5.23H87.085a1.494 1.494 0 110-2.988h22.866a1.494 1.494 0 010 2.988zm-22.404-10.624a1.494 1.494 0 100-2.989 1.494 1.494 0 000 2.989zm4.856 0a1.494 1.494 0 100-2.989 1.494 1.494 0 000 2.989zm-17.608 34.114h70.276v2.988H74.795v-2.988zm0-99.307h70.276v2.989H74.795v-2.989z" fill="#2626BC"/><circle cx="108" cy="108" r="106.5" stroke="#00C" stroke-width="3"/><defs><linearGradient id="paint0_linear" x1="162.613" y1="54.387" x2="30.805" y2="186.195" gradientUnits="userSpaceOnUse"><stop stop-color="#D2DEFF" stop-opacity="0"/><stop offset="1" stop-color="#B7C5FF"/></linearGradient></defs></svg>