<svg width="216" height="216" fill="none" xmlns="http://www.w3.org/2000/svg"><g clip-path="url(#clip0)"><path d="M169.811 40.173c-19.052-11.351-43.706-10.72-62.417.91-10.512 6.533-18.639 15.958-27.854 24.07-8.075 7.11-17.465 12.18-25.805 18.887-30.244 24.326-27.358 89.936 15.23 98.651 18.46 3.778 43.691 4.989 54.541-13.041 10.345-17.192 13.815-34.779 34.029-43.911 7.045-3.182 18.819-3.022 23.591-9.996 6.022-8.8-1.45-17.942-5.436-25.611-5.137-9.884-6.214-19.628-2.6-30.23 3.078-9.028 5.244-13.083-3.279-19.729z" fill="url(#paint0_linear)"/><path opacity=".1" d="M155.516 147.446c-3.423 0-6.565 1.2-9.031 3.201l-6.944-6.944c3.73-4 6.695-8.722 8.664-13.934a2.252 2.252 0 002.28-.551l10.503-10.504c1.419-1.419.414-3.844-1.592-3.844h-3.051v-12.945a2.252 2.252 0 00-2.252-2.252h-5.929a42.437 42.437 0 00-8.623-13.826l6.944-6.943c2.466 2 5.608 3.201 9.031 3.201 7.922 0 14.345-6.422 14.345-14.345 0-7.923-6.423-14.345-14.345-14.345-7.923 0-14.346 6.422-14.346 14.345 0 3.423 1.201 6.565 3.202 9.03l-6.944 6.944a42.433 42.433 0 00-13.934-8.664 2.25 2.25 0 00-.551-2.279l-10.504-10.504c-1.419-1.419-3.844-.414-3.844 1.593v3.051H95.65a2.252 2.252 0 00-2.252 2.252v5.928a42.441 42.441 0 00-13.826 8.623l-6.944-6.943a14.284 14.284 0 003.202-9.031c0-7.923-6.423-14.345-14.345-14.345-7.923 0-14.345 6.422-14.345 14.345 0 7.923 6.422 14.345 14.345 14.345 3.423 0 6.565-1.2 9.03-3.201l6.944 6.944c-3.73 4-6.695 8.722-8.664 13.934a2.25 2.25 0 00-2.279.551l-10.504 10.504c-1.419 1.419-.414 3.844 1.593 3.844h3.05v12.945a2.253 2.253 0 002.253 2.252h5.928a42.438 42.438 0 008.623 13.825l-7.079 7.079a14.28 14.28 0 00-8.895-3.095c-7.923 0-14.345 6.422-14.345 14.345 0 7.923 6.422 14.345 14.345 14.345 7.922 0 14.345-6.422 14.345-14.345a14.28 14.28 0 00-3.31-9.164l7.052-7.052a42.44 42.44 0 0013.935 8.665 2.25 2.25 0 00.55 2.279l10.505 10.504c1.418 1.418 3.844.413 3.844-1.593v-3.051h12.945a2.252 2.252 0 002.252-2.252v-5.929a42.423 42.423 0 0013.825-8.623l6.944 6.944a14.283 14.283 0 00-3.201 9.031c0 7.922 6.422 14.345 14.345 14.345 7.923 0 14.345-6.422 14.345-14.345 0-7.923-6.423-14.345-14.345-14.345z" fill="#2626BC"/><path d="M108.5 150.037c23.436 0 42.434-18.998 42.434-42.434 0-23.435-18.998-42.433-42.434-42.433-23.435 0-42.433 18.998-42.433 42.433 0 23.436 18.998 42.434 42.433 42.434z" fill="#6583FE"/><path d="M131.106 106.587v36.932a42.238 42.238 0 01-22.606 6.518c-2.044 0-4.055-.144-6.024-.425V131.59h-9.527a2.294 2.294 0 01-2.259-2.668l.182-1.115.493-2.991.38-2.313.49-2.989h-4.05a2.293 2.293 0 01-2.291-2.289v-10.638c0-12.482 10.124-22.6 22.606-22.6 12.482 0 22.606 10.118 22.606 22.6z" fill="#fff"/><path d="M97.4 121.01c0 .825-.67 1.494-1.494 1.494h-4.163l.494-2.988h3.67c.824 0 1.493.669 1.493 1.494zm8.2 4.497c-.176.093-4.405 2.292-14.73 2.301l.494-2.991c9.072-.072 12.79-1.924 12.826-1.945a1.495 1.495 0 111.41 2.635zm-2.313-15.156a1.494 1.494 0 01-1.495-1.494v-.803a1.494 1.494 0 012.989 0v.803c0 .825-.669 1.494-1.494 1.494zm14.654 9.711a7.89 7.89 0 01-5.595-2.313 1.495 1.495 0 012.113-2.113 4.93 4.93 0 006.964 0 4.93 4.93 0 000-6.964 4.93 4.93 0 00-6.964 0 1.495 1.495 0 01-2.113-2.113c3.085-3.085 8.106-3.085 11.19 0 3.085 3.085 3.085 8.105 0 11.19a7.889 7.889 0 01-5.595 2.313z" fill="#2626BC"/><path d="M169.497 63.925c1.822-7.709-2.95-15.435-10.659-17.258-7.709-1.822-15.435 2.95-17.257 10.659-1.822 7.709 2.95 15.435 10.658 17.257 7.709 1.823 15.436-2.95 17.258-10.658z" fill="#fff"/><path d="M160.48 58.853a4.97 4.97 0 00-4.965-4.965 4.97 4.97 0 00-4.964 4.965c0 1.35.543 2.574 1.421 3.47a4.948 4.948 0 00-1.421 3.47 1.494 1.494 0 002.988 0c0-1.09.887-1.976 1.976-1.976a1.98 1.98 0 011.977 1.976 1.494 1.494 0 002.988 0c0-1.35-.543-2.574-1.421-3.47a4.944 4.944 0 001.421-3.47zm-4.965-1.977c1.09 0 1.977.887 1.977 1.977s-.887 1.976-1.977 1.976a1.979 1.979 0 01-1.976-1.976 1.98 1.98 0 011.976-1.977z" fill="#2626BC"/><path d="M71.61 164.751c5.602-5.601 5.602-14.683 0-20.284-5.6-5.602-14.682-5.602-20.284 0-5.6 5.601-5.6 14.683 0 20.284 5.602 5.601 14.683 5.601 20.285 0z" fill="#fff"/><path d="M66.45 152.883a4.97 4.97 0 00-4.965-4.964 4.97 4.97 0 00-4.965 4.964 4.95 4.95 0 001.421 3.471 4.946 4.946 0 00-1.42 3.47 1.494 1.494 0 002.988 0c0-1.09.886-1.976 1.976-1.976 1.09 0 1.976.886 1.976 1.976a1.494 1.494 0 002.988 0c0-1.35-.543-2.574-1.42-3.47a4.947 4.947 0 001.42-3.471zm-4.965-1.976c1.09 0 1.976.887 1.976 1.976a1.98 1.98 0 01-1.976 1.977 1.979 1.979 0 01-1.977-1.977 1.98 1.98 0 011.977-1.976z" fill="#2626BC"/><path d="M71.62 70.73c5.602-5.601 5.602-14.683 0-20.284-5.601-5.601-14.683-5.601-20.284 0-5.601 5.601-5.601 14.683 0 20.284 5.602 5.602 14.683 5.602 20.284 0z" fill="#fff"/><path d="M66.45 58.853a4.97 4.97 0 00-4.965-4.965 4.97 4.97 0 00-4.965 4.965c0 1.35.544 2.574 1.421 3.47a4.946 4.946 0 00-1.42 3.47 1.494 1.494 0 002.988 0c0-1.09.886-1.976 1.976-1.976 1.09 0 1.976.887 1.976 1.976a1.494 1.494 0 002.988 0c0-1.35-.543-2.574-1.42-3.47a4.946 4.946 0 001.42-3.47zm-4.965-1.977c1.09 0 1.976.887 1.976 1.977s-.887 1.976-1.976 1.976a1.978 1.978 0 01-1.977-1.976 1.98 1.98 0 011.977-1.977z" fill="#2626BC"/><path d="M169.49 157.785c1.807-7.716-2.984-15.436-10.701-17.242-7.717-1.807-15.437 2.984-17.243 10.701-1.807 7.717 2.985 15.437 10.701 17.243 7.717 1.806 15.437-2.985 17.243-10.702z" fill="#fff"/><path d="M160.48 152.884a4.97 4.97 0 00-4.964-4.965 4.97 4.97 0 00-4.965 4.965c0 1.35.544 2.574 1.421 3.47a4.948 4.948 0 00-1.421 3.47 1.494 1.494 0 002.989 0c0-1.09.886-1.976 1.976-1.976 1.089 0 1.976.887 1.976 1.976a1.494 1.494 0 002.988 0c0-1.35-.543-2.574-1.421-3.47a4.943 4.943 0 001.421-3.47zm-4.964-1.977a1.98 1.98 0 011.976 1.977 1.979 1.979 0 01-1.976 1.976 1.978 1.978 0 01-1.976-1.976c0-1.09.886-1.977 1.976-1.977z" fill="#2626BC"/><path d="M122.943 65.619l-10.504-10.504c-1.419-1.419-3.844-.414-3.844 1.593v3.05H95.65a2.252 2.252 0 00-2.252 2.253v10.4a2.252 2.252 0 002.252 2.252h12.945v3.052c0 2.006 2.426 3.011 3.844 1.592l10.504-10.504a2.253 2.253 0 000-3.184zm-28.885 83.969l10.503 10.504c1.419 1.418 3.845.413 3.845-1.593v-3.051h12.944a2.252 2.252 0 002.252-2.252v-10.401a2.252 2.252 0 00-2.252-2.252h-12.944v-3.051c0-2.007-2.426-3.012-3.845-1.593l-10.504 10.504a2.252 2.252 0 000 3.185zm56.427-27.542l10.503-10.504c1.419-1.419.414-3.844-1.592-3.844h-3.051V94.753a2.252 2.252 0 00-2.252-2.252h-10.401a2.252 2.252 0 00-2.252 2.252v12.945h-3.051c-2.007 0-3.012 2.425-1.593 3.844l10.504 10.504a2.253 2.253 0 003.185 0zM66.516 93.16l-10.504 10.504c-1.419 1.419-.414 3.845 1.592 3.845h3.052v12.944a2.252 2.252 0 002.252 2.252h10.4a2.252 2.252 0 002.252-2.252v-12.944h3.052c2.006 0 3.01-2.426 1.592-3.845L69.7 93.161a2.252 2.252 0 00-3.184 0z" fill="#fff"/><path d="M85.894 49.93a1.49 1.49 0 01-1.057-.438l-3.287-3.287a1.494 1.494 0 010-2.113l3.287-3.287a1.494 1.494 0 012.113 0l3.287 3.287c.584.583.584 1.53 0 2.113l-3.287 3.287a1.489 1.489 0 01-1.056.437zm-1.174-4.782l1.174 1.174 1.174-1.174-1.174-1.174-1.174 1.174zm44.838 8.885a1.49 1.49 0 01-1.057-.438l-3.287-3.287a1.493 1.493 0 010-2.113l3.287-3.287a1.494 1.494 0 012.113 0l3.287 3.287c.584.584.584 1.53 0 2.113l-3.287 3.287a1.49 1.49 0 01-1.056.438zm-1.175-4.782l1.175 1.175 1.174-1.175-1.174-1.174-1.175 1.174zm4.462 122.6a1.494 1.494 0 01-1.494-1.494c0-.989-.805-1.793-1.793-1.793a1.495 1.495 0 110-2.988c.988 0 1.793-.804 1.793-1.793a1.494 1.494 0 012.988 0c0 .989.804 1.793 1.793 1.793a1.494 1.494 0 010 2.988c-.989 0-1.793.804-1.793 1.793 0 .825-.669 1.494-1.494 1.494zm36.026-46.06a1.495 1.495 0 01-1.495-1.494c0-.989-.804-1.793-1.793-1.793a1.494 1.494 0 010-2.988c.989 0 1.793-.804 1.793-1.793a1.495 1.495 0 012.989 0c0 .989.804 1.793 1.793 1.793a1.494 1.494 0 010 2.988c-.989 0-1.793.804-1.793 1.793 0 .825-.669 1.494-1.494 1.494zm-120.06 8.988a1.494 1.494 0 01-1.494-1.494c0-.989-.805-1.793-1.793-1.793a1.494 1.494 0 010-2.988c.989 0 1.793-.804 1.793-1.793a1.494 1.494 0 012.988 0c0 .989.805 1.793 1.793 1.793a1.494 1.494 0 010 2.988c-.988 0-1.793.804-1.793 1.793 0 .825-.669 1.494-1.494 1.494z" fill="#6583FE"/><path d="M145.427 72.79a15.766 15.766 0 0010.089 3.637c8.733 0 15.839-7.105 15.839-15.84 0-8.733-7.106-15.838-15.839-15.838-8.734 0-15.84 7.105-15.84 15.839 0 3.83 1.367 7.347 3.638 10.088l-4.828 4.828a43.965 43.965 0 00-13.404-8.587 3.715 3.715 0 00-1.083-2.355L113.496 54.06a3.737 3.737 0 00-4.083-.812 3.735 3.735 0 00-2.313 3.46v1.558H95.65a3.75 3.75 0 00-3.747 3.746v4.913a43.957 43.957 0 00-13.387 8.583l-4.83-4.83a15.766 15.766 0 003.637-10.09c0-8.733-7.105-15.838-15.84-15.838-8.733 0-15.838 7.105-15.838 15.839s7.105 15.84 15.839 15.84c3.83 0 7.346-1.368 10.088-3.639l4.831 4.831a43.958 43.958 0 00-8.59 13.403c-.859.067-1.7.426-2.354 1.081l-10.504 10.504a3.736 3.736 0 00-.812 4.083 3.735 3.735 0 003.46 2.312h3.052a1.494 1.494 0 000-2.988h-3.05a.732.732 0 01-.701-.468.732.732 0 01.164-.826l10.504-10.503a.759.759 0 011.072 0l10.503 10.503a.733.733 0 01.165.826.732.732 0 01-.7.468H75.56c-.825 0-1.494.669-1.494 1.494v12.945c0 .418-.34.758-.758.758h-10.4a.759.759 0 01-.758-.758v-2.886a1.494 1.494 0 00-2.989 0v2.886a3.75 3.75 0 003.747 3.746h4.912a43.94 43.94 0 008.584 13.387l-4.831 4.831a15.766 15.766 0 00-10.088-3.638c-8.734 0-15.84 7.106-15.84 15.839 0 8.734 7.106 15.84 15.84 15.84 8.733 0 15.839-7.106 15.839-15.84 0-3.83-1.367-7.346-3.638-10.088l4.83-4.83a43.944 43.944 0 0013.402 8.589c.069.89.445 1.717 1.083 2.355l10.504 10.504a3.736 3.736 0 004.083.812 3.737 3.737 0 002.312-3.461v-1.557h11.451a3.75 3.75 0 003.746-3.747v-4.916a43.797 43.797 0 0013.392-8.575l4.826 4.826a15.766 15.766 0 00-3.638 10.088c0 8.734 7.105 15.84 15.839 15.84s15.839-7.106 15.839-15.84c0-8.733-7.105-15.839-15.839-15.839-3.83 0-7.347 1.367-10.088 3.638l-4.826-4.826a44.36 44.36 0 003.962-4.9 1.494 1.494 0 10-2.451-1.709 40.884 40.884 0 01-17.016 14.052v-2.239a3.75 3.75 0 00-3.746-3.746H109.9v-1.558c0-1.52-.908-2.879-2.312-3.461a3.738 3.738 0 00-4.083.812l-10.504 10.504c-.037.037-.07.078-.105.116A41.097 41.097 0 0171.068 124.2h2.24a3.75 3.75 0 003.747-3.746v-11.451h1.557c1.52 0 2.88-.907 3.461-2.312a3.736 3.736 0 00-.812-4.083L70.758 92.104c-.037-.037-.077-.069-.116-.104a41.108 41.108 0 0121.262-21.83v2.242a3.75 3.75 0 003.746 3.746h11.451v1.557c0 1.52.908 2.88 2.313 3.461a3.735 3.735 0 004.082-.812L124 69.861c.037-.038.07-.079.106-.117a41.066 41.066 0 0121.828 21.263h-2.241a3.75 3.75 0 00-3.746 3.746v11.451h-1.558c-1.52 0-2.879.908-3.461 2.312a3.738 3.738 0 00.812 4.083l10.504 10.504a3.722 3.722 0 002.649 1.097c1.001 0 1.941-.39 2.649-1.097l10.504-10.504a3.736 3.736 0 00.812-4.083 3.737 3.737 0 00-3.461-2.312h-1.557v-11.45a3.751 3.751 0 00-3.747-3.747h-4.912a43.94 43.94 0 00-8.582-13.39l4.828-4.828zm22.939 81.829c0 7.086-5.764 12.851-12.85 12.851-7.087 0-12.852-5.765-12.852-12.851 0-7.086 5.765-12.851 12.852-12.851 7.086 0 12.85 5.765 12.85 12.851zm-73.252-7.159l10.503-10.504a.72.72 0 01.521-.226c.131 0 .242.035.306.062a.73.73 0 01.467.7v3.051c0 .825.669 1.494 1.495 1.494h12.944c.418 0 .758.34.758.758v10.401c0 .418-.34.758-.758.758h-12.944c-.826 0-1.495.669-1.495 1.494v3.051a.731.731 0 01-.468.7.731.731 0 01-.826-.164l-10.503-10.504a.754.754 0 010-1.071zm-33.63 20.01c-7.086 0-12.85-5.765-12.85-12.851 0-7.086 5.765-12.851 12.85-12.851 7.086 0 12.852 5.765 12.852 12.851 0 7.086-5.765 12.851-12.852 12.851zM48.634 60.588c0-7.086 5.765-12.85 12.85-12.85 7.086 0 12.852 5.764 12.852 12.85 0 7.086-5.765 12.851-12.852 12.851-7.086 0-12.85-5.765-12.85-12.851zM154.85 94.753v12.945c0 .825.669 1.494 1.494 1.494h3.052c.457 0 .642.327.7.468a.733.733 0 01-.164.826l-10.504 10.503v.001a.757.757 0 01-1.072 0l-10.504-10.504a.733.733 0 01-.164-.826.731.731 0 01.7-.468h3.052c.825 0 1.494-.669 1.494-1.494V94.754c0-.419.34-.759.757-.759h10.401c.418 0 .758.34.758.758zm.666-47.016c7.086 0 12.85 5.765 12.85 12.85 0 7.087-5.764 12.852-12.85 12.852-7.087 0-12.852-5.765-12.852-12.851 0-7.086 5.765-12.85 12.852-12.85zm-33.63 20.01l-10.504 10.504a.732.732 0 01-.826.164.731.731 0 01-.467-.7v-3.051c0-.825-.67-1.494-1.495-1.494H95.65a.759.759 0 01-.758-.758v-10.4c0-.419.34-.759.758-.759h12.944c.825 0 1.495-.669 1.495-1.494v-3.051c0-.457.327-.642.468-.7a.731.731 0 01.825.164l10.504 10.503a.755.755 0 010 1.073z" fill="#2626BC"/></g><circle cx="108" cy="108" r="106.5" stroke="#00C" stroke-width="3"/><defs><linearGradient id="paint0_linear" x1="33.613" y1="108.5" x2="183.387" y2="108.5" gradientUnits="userSpaceOnUse"><stop stop-color="#D2DEFF" stop-opacity="0"/><stop offset="1" stop-color="#B7C5FF"/></linearGradient><clipPath id="clip0"><path fill="#fff" transform="translate(32 32)" d="M0 0h153v153H0z"/></clipPath></defs></svg>