<svg width="787" height="787" viewBox="0 0 787 787" fill="none" xmlns="http://www.w3.org/2000/svg">
<path d="M302.811 587.176C357.991 587.176 402.723 631.909 402.723 687.088C402.723 742.267 357.991 787 302.811 787C247.63 787 202.898 742.267 202.898 687.088C202.898 631.909 247.63 587.176 302.811 587.176Z" fill="#61AE9F"/>
<path d="M402.723 687.088C402.723 742.267 357.99 787 302.811 787C297.045 787 291.402 786.485 285.902 785.546C333.026 777.508 368.906 736.501 368.906 687.088C368.906 637.674 333.026 596.666 285.902 588.63C291.402 587.692 297.045 587.176 302.811 587.176C357.99 587.176 402.723 631.909 402.723 687.088Z" fill="#4C9089"/>
<path d="M322.024 659.42V653.271C322.024 652.847 321.679 652.503 321.256 652.503H296.662C289.458 652.503 283.597 658.364 283.597 665.568V708.607C283.597 715.812 289.458 721.673 296.662 721.673H321.256C321.679 721.673 322.024 721.329 322.024 720.904V714.756C322.024 708.389 327.184 703.228 333.553 703.228C339.921 703.228 345.081 708.389 345.081 714.756V720.904C345.081 734.042 334.394 744.729 321.256 744.729H296.662C276.744 744.729 260.54 728.525 260.54 708.607V665.568C260.54 645.65 276.744 629.446 296.662 629.446H321.256C334.394 629.446 345.081 640.134 345.081 653.271V659.42C345.081 665.787 339.921 670.948 333.553 670.948C327.184 670.948 322.024 665.787 322.024 659.42Z" fill="#4A7273"/>
<path d="M602.547 276.68C704.417 276.68 787 359.262 787 461.133C787 563.003 704.417 645.586 602.547 645.586C500.676 645.586 418.094 563.003 418.094 461.133C418.094 359.262 500.676 276.68 602.547 276.68Z" fill="#FE5E47"/>
<path d="M787 461.133C787 563.003 704.417 645.586 602.547 645.586C596.846 645.586 591.209 645.314 585.639 644.807C679.582 636.266 753.184 557.302 753.184 461.133C753.184 364.964 679.582 285.998 585.639 277.459C591.209 276.953 596.846 276.68 602.547 276.68C704.417 276.68 787 359.262 787 461.133Z" fill="#F53737"/>
<path d="M641.63 435.372C644.964 429.33 646.867 422.393 646.867 415.02C646.867 391.711 627.903 372.749 604.596 372.749H563.607C557.239 372.749 552.079 377.911 552.079 384.277V445.762V537.988C552.079 544.355 557.239 549.517 563.607 549.517H630.215C661.999 549.517 687.857 523.659 687.857 491.875C687.857 463.998 667.965 440.685 641.63 435.372ZM575.136 395.806H604.596C615.191 395.806 623.81 404.424 623.81 415.02C623.81 425.615 615.191 434.233 604.596 434.233H575.136V395.806ZM630.215 526.46H575.136V457.29H604.596H630.215C649.284 457.29 664.8 472.804 664.8 491.875C664.8 510.946 649.284 526.46 630.215 526.46Z" fill="#DB3131"/>
<path d="M522.617 261.309C522.617 405.625 405.625 522.617 261.309 522.617C116.992 522.617 0 405.625 0 261.309C0 116.992 116.992 0 261.309 0C405.625 0 522.617 116.992 522.617 261.309Z" fill="#6583FE"/>
<path d="M522.617 261.309C522.617 405.625 405.625 522.617 261.309 522.617C253.537 522.617 245.851 522.258 238.252 521.593C371.767 509.918 476.504 397.855 476.504 261.309C476.504 124.763 371.767 12.6996 238.252 1.02371C245.851 0.359684 253.537 0 261.309 0C405.625 0 522.617 116.992 522.617 261.309Z" fill="#2626BC"/>
<path d="M364.471 372.944L333.804 280.945C333.801 280.934 333.797 280.923 333.793 280.913L292.476 156.96C287.997 143.523 275.471 134.495 261.308 134.495C247.145 134.495 234.619 143.523 230.14 156.96L188.824 280.908C188.821 280.92 188.816 280.933 188.812 280.945L158.146 372.943C156.133 378.982 159.396 385.512 165.437 387.525C171.481 389.536 178.006 386.272 180.02 380.233L208.135 295.889H314.484L342.6 380.233C344.21 385.064 348.708 388.118 353.535 388.118C354.743 388.118 355.972 387.926 357.182 387.524C363.221 385.513 366.485 378.985 364.471 372.944ZM215.819 272.835L252.013 164.252C253.349 160.245 257.084 157.552 261.308 157.552C265.532 157.552 269.267 160.243 270.603 164.251L306.797 272.835H215.819Z" fill="#2626BC"/>
</svg>
