<svg width="216" height="216" viewBox="0 0 216 216" fill="none" xmlns="http://www.w3.org/2000/svg">
<path d="M185 89.4153C185 66.3431 150.75 47.6394 108.5 47.6394C66.2502 47.6394 32 66.3431 32 89.4153C32 93.1446 32.8959 96.7596 34.5759 100.2C37.5663 106.323 38.3118 113.297 36.8282 119.948C36.2198 122.675 35.8782 125.503 35.8322 128.403C35.4631 151.656 54.3479 170.855 77.603 170.855C95.0674 170.855 110.027 160.137 116.267 144.921C119.694 136.564 126.895 130.302 135.737 128.462C164.538 122.469 185 107.248 185 89.4153Z" fill="url(#paint0_linear)"/>
<g opacity="0.1">
<g opacity="0.1">
<g opacity="0.1">
<g opacity="0.1">
<path opacity="0.1" d="M148.871 66.783C148.489 66.783 148.107 66.6372 147.815 66.3456C147.231 65.7619 147.231 64.8159 147.815 64.2325L152.559 59.4886C153.143 58.9053 154.089 58.9056 154.672 59.4886C155.255 60.0723 155.255 61.0183 154.672 61.6017L149.928 66.3459C149.636 66.6372 149.254 66.783 148.871 66.783Z" fill="#0000CC"/>
</g>
</g>
</g>
<g opacity="0.1">
<g opacity="0.1">
<g opacity="0.1">
<path opacity="0.1" d="M95.8201 66.783C95.4376 66.783 95.0554 66.6371 94.7634 66.3455L90.0193 61.6013C89.4356 61.0177 89.4356 60.0716 90.0193 59.4883C90.6029 58.905 91.5487 58.905 92.1323 59.4883L96.8765 64.2322C97.4601 64.8158 97.4601 65.7619 96.8765 66.3452C96.5848 66.6371 96.2023 66.783 95.8201 66.783Z" fill="#0000CC"/>
</g>
</g>
</g>
<g opacity="0.1">
<g opacity="0.1">
<g opacity="0.1">
<path opacity="0.1" d="M166.568 93.3088H159.859C159.034 93.3088 158.365 92.6398 158.365 91.8147C158.365 90.9896 159.034 90.3206 159.859 90.3206H166.568C167.393 90.3206 168.062 90.9896 168.062 91.8147C168.062 92.6398 167.393 93.3088 166.568 93.3088Z" fill="#0000CC"/>
</g>
</g>
<g opacity="0.1">
<path opacity="0.1" d="M84.8328 93.3088H78.1235C77.2985 93.3088 76.6294 92.6398 76.6294 91.8147C76.6294 90.9896 77.2985 90.3206 78.1235 90.3206H84.8328C85.6579 90.3206 86.327 90.9896 86.327 91.8147C86.327 92.6398 85.6579 93.3088 84.8328 93.3088Z" fill="#0000CC"/>
</g>
</g>
<g opacity="0.1">
<g opacity="0.1">
<g opacity="0.1">
<path opacity="0.1" d="M122.345 55.7957C121.52 55.7957 120.851 55.1266 120.851 54.3016V47.5923C120.851 46.7672 121.52 46.0981 122.345 46.0981C123.171 46.0981 123.84 46.7672 123.84 47.5923V54.3016C123.84 55.1266 123.171 55.7957 122.345 55.7957Z" fill="#0000CC"/>
</g>
</g>
</g>
</g>
<g opacity="0.1">
<path opacity="0.1" d="M82.7626 128.8H54.2024C51.2948 128.8 48.938 131.157 48.938 134.065V173.705C48.938 176.613 51.2951 178.97 54.2024 178.97H82.7629C85.6705 178.97 88.0274 176.613 88.0274 173.705V134.065C88.0274 131.157 85.6702 128.8 82.7626 128.8Z" fill="#0000CC"/>
<path opacity="0.1" d="M122.346 60.6772C105.637 60.6769 92.1055 74.1404 92.0248 90.8493C91.9814 99.8727 95.88 107.986 102.098 113.567C107.108 118.064 110.486 124.026 111.702 130.53C110.118 131.471 109.053 133.195 109.053 135.172V146.842C109.053 149.347 110.76 151.447 113.072 152.058V159.847C113.072 161.516 114.425 162.869 116.094 162.869C117.763 162.869 119.116 161.516 119.116 159.847V152.243H125.575V159.847C125.575 161.516 126.928 162.869 128.597 162.869C130.266 162.869 131.619 161.516 131.619 159.847V152.058C133.931 151.447 135.638 149.347 135.638 146.842V135.172C135.638 133.195 134.573 131.471 132.989 130.53C134.204 124.026 137.581 118.065 142.591 113.569C148.776 108.018 152.667 99.963 152.667 90.9984C152.667 74.253 139.092 60.6775 122.346 60.6772Z" fill="#0000CC"/>
</g>
<path d="M82.7626 170.903H54.2024C51.2948 170.903 48.938 168.545 48.938 165.638V125.997C48.938 123.09 51.2951 120.733 54.2024 120.733H82.7629C85.6705 120.733 88.0274 123.09 88.0274 125.997V165.638C88.0274 168.545 85.6702 170.903 82.7626 170.903Z" fill="white"/>
<path d="M74.0981 120.732V122.302C74.0981 125.403 71.5841 127.917 68.4825 127.917C65.3813 127.917 62.8669 125.403 62.8669 122.302V120.732H74.0981Z" fill="#6583FE"/>
<path d="M75.808 140.91V155.616C75.808 159.662 72.5299 162.943 68.4838 162.943C64.4376 162.943 61.1565 159.662 61.1565 155.616V140.91C61.1565 136.861 64.4376 133.583 68.4838 133.583C70.5068 133.583 72.3386 134.402 73.6625 135.729C74.9893 137.055 75.808 138.884 75.808 140.91Z" fill="#6583FE"/>
<path d="M68.4729 133.593C64.4277 133.593 61.1485 136.873 61.1485 140.918C61.1485 144.963 64.4277 148.242 68.4729 148.242C72.5181 148.242 75.7974 144.963 75.7974 140.918C75.7974 136.873 72.5181 133.593 68.4729 133.593Z" fill="white"/>
<path d="M68.467 149.721C66.1113 149.721 63.8965 148.803 62.2305 147.137C58.792 143.699 58.792 138.104 62.2305 134.665C65.6689 131.226 71.264 131.227 74.7031 134.665C76.3687 136.33 77.2863 138.545 77.2863 140.901C77.2863 143.257 76.3687 145.471 74.7031 147.137C73.0374 148.803 70.8229 149.721 68.467 149.721ZM64.3434 136.778C62.0697 139.051 62.0697 142.751 64.3434 145.025C65.4449 146.126 66.9095 146.733 68.467 146.733C70.0245 146.733 71.489 146.126 72.5906 145.025C73.6919 143.923 74.2989 142.459 74.2987 140.901C74.2987 139.343 73.6919 137.879 72.5906 136.778C70.3164 134.504 66.6169 134.504 64.3434 136.778Z" fill="#0000CC"/>
<path d="M119.116 140.296V151.779C119.116 153.448 117.763 154.8 116.094 154.8C114.425 154.8 113.072 153.447 113.072 151.779V140.296H119.116Z" fill="white"/>
<path d="M131.619 140.296V151.779C131.619 153.448 130.266 154.8 128.597 154.8C126.928 154.8 125.575 153.447 125.575 151.779V140.296H131.619Z" fill="white"/>
<path d="M102.098 105.499C107.989 110.787 111.626 118.099 112.142 125.939H132.55C133.066 118.1 136.701 110.787 142.592 105.501C148.777 99.9501 152.667 91.8949 152.667 82.9304C152.667 66.1844 139.092 52.6092 122.346 52.6089C105.637 52.6086 92.1055 66.072 92.0248 82.781C91.9811 91.8047 95.88 99.9176 102.098 105.499Z" fill="white"/>
<path d="M128.004 122.484H116.688L117.701 117.479L119.775 107.217H124.917L126.991 117.479L128.004 122.484Z" fill="#6583FE"/>
<path d="M130.238 144.175H114.454C111.471 144.175 109.053 141.756 109.053 138.774V127.103C109.053 124.121 111.471 121.702 114.454 121.702H130.238C133.221 121.702 135.639 124.121 135.639 127.103V138.774C135.639 141.757 133.221 144.175 130.238 144.175Z" fill="white"/>
<path d="M109.053 128.67H135.639V132.939H109.053V128.67Z" fill="#6583FE"/>
<path d="M129.727 104.046C129.727 107.674 128.087 110.918 125.509 113.077C123.681 114.608 121.011 114.609 119.183 113.078C116.604 110.918 114.963 107.674 114.963 104.046C114.963 100.419 116.603 97.1767 119.182 95.0174C121.01 93.4859 123.682 93.4862 125.51 95.0177C128.088 97.177 129.727 100.42 129.727 104.046Z" fill="#6583FE"/>
<path d="M128.663 103.312C126.557 103.312 125.407 102.387 124.567 101.712C123.838 101.125 123.398 100.771 122.345 100.771C121.292 100.771 120.852 101.125 120.123 101.712C119.283 102.388 118.134 103.312 116.028 103.312C113.922 103.312 112.772 102.387 111.932 101.712C111.203 101.125 110.763 100.771 109.71 100.771C108.885 100.771 108.216 100.102 108.216 99.2771C108.216 98.452 108.885 97.783 109.71 97.783C111.816 97.783 112.966 98.7081 113.806 99.3835C114.535 99.9701 114.975 100.324 116.028 100.324C117.08 100.324 117.521 99.9701 118.249 99.3838C119.089 98.7081 120.239 97.783 122.345 97.783C124.45 97.783 125.6 98.7081 126.44 99.3835C127.169 99.9701 127.609 100.324 128.662 100.324C129.715 100.324 130.156 99.9701 130.885 99.3835C131.725 98.7081 132.874 97.783 134.98 97.783C135.805 97.783 136.474 98.452 136.474 99.2771C136.474 100.102 135.805 100.771 134.98 100.771C133.927 100.771 133.487 101.125 132.758 101.712C131.918 102.387 130.769 103.312 128.663 103.312Z" fill="#0000CC"/>
<path d="M82.7628 119.238H54.2023C50.4756 119.238 47.4434 122.27 47.4434 125.997V165.637C47.4434 169.364 50.4753 172.396 54.2023 172.396H69.0546C69.8797 172.396 70.5488 171.727 70.5488 170.902C70.5488 170.077 69.8797 169.408 69.0546 169.408H54.2023C52.123 169.408 50.4316 167.716 50.4316 165.637V125.997C50.4316 123.918 52.123 122.226 54.2023 122.226H82.7628C84.8417 122.226 86.5331 123.917 86.5331 125.997V165.637C86.5331 167.716 84.8417 169.408 82.7628 169.408H79.2148C78.3897 169.408 77.7206 170.077 77.7206 170.902C77.7206 171.727 78.3897 172.396 79.2148 172.396H82.7628C86.4894 172.396 89.5214 169.364 89.5214 165.637V125.997C89.5214 122.27 86.4894 119.238 82.7628 119.238Z" fill="#0000CC"/>
<path d="M76.1927 108.571C76.6207 107.866 76.3956 106.947 75.6901 106.519C73.5188 105.202 71.0263 104.506 68.4824 104.506C65.9382 104.506 63.4456 105.202 61.2746 106.519C60.5691 106.947 60.3441 107.866 60.772 108.571C61.0532 109.035 61.5457 109.291 62.051 109.291C62.3149 109.291 62.5823 109.221 62.8244 109.074C64.5283 108.04 66.4844 107.494 68.4821 107.494C70.4794 107.494 72.4362 108.04 74.1401 109.074C74.8456 109.502 75.7648 109.277 76.1927 108.571Z" fill="#0000CC"/>
<path d="M68.4823 109.812C67.2428 109.812 66.0286 110.151 64.9705 110.793C64.2649 111.222 64.0402 112.14 64.4681 112.846C64.8964 113.551 65.815 113.776 66.5208 113.348C67.7021 112.632 69.2631 112.632 70.4438 113.348C70.6862 113.495 70.9536 113.565 71.2175 113.565C71.7225 113.565 72.2153 113.309 72.4965 112.846C72.9244 112.14 72.6997 111.222 71.9941 110.793C70.936 110.151 69.7218 109.812 68.4823 109.812Z" fill="#0000CC"/>
<path d="M59.4053 104.577C62.139 102.919 65.2779 102.042 68.4825 102.042C71.6871 102.042 74.826 102.919 77.5597 104.577C77.802 104.724 78.0692 104.794 78.3331 104.794C78.8381 104.794 79.3308 104.538 79.612 104.075C80.04 103.369 79.8149 102.45 79.1094 102.022C75.9081 100.08 72.2334 99.0542 68.4822 99.0542C64.731 99.0542 61.0563 100.081 57.855 102.022C57.1494 102.45 56.9244 103.369 57.3523 104.075C57.7809 104.78 58.6995 105.006 59.4053 104.577Z" fill="#0000CC"/>
<path d="M122.346 51.1147C115.418 51.1147 108.836 53.2962 103.31 57.423C102.649 57.9167 102.513 58.8529 103.007 59.5139C103.5 60.1749 104.437 60.3109 105.098 59.8169C110.103 56.0789 116.068 54.1027 122.346 54.1027C138.241 54.1027 151.173 67.0348 151.173 82.9301C151.173 91.1033 147.681 98.9246 141.594 104.388C136.744 108.74 133.414 114.302 131.908 120.414C131.373 120.28 130.814 120.208 130.238 120.208H114.453C113.876 120.208 113.315 120.281 112.779 120.415C111.273 114.303 107.946 108.74 103.096 104.387C96.9697 98.8881 93.4791 91.0155 93.5189 82.7878C93.5464 77.0581 95.2449 71.5337 98.4307 66.8122C98.8921 66.1282 98.7116 65.1994 98.0276 64.738C97.3436 64.2763 96.4148 64.4565 95.9534 65.1411C92.4365 70.3542 90.5614 76.4515 90.5309 82.7738C90.4873 91.854 94.3395 100.542 101.1 106.611C105.678 110.719 108.765 116.009 110.044 121.808C108.527 123.073 107.559 124.977 107.559 127.103V138.774C107.559 141.549 109.208 143.945 111.578 145.038V151.778C111.578 154.269 113.604 156.295 116.095 156.295C118.585 156.295 120.612 154.269 120.612 151.778V145.668H124.081V151.778C124.081 154.269 126.107 156.295 128.598 156.295C131.089 156.295 133.115 154.269 133.115 151.778V145.038C135.484 143.945 137.133 141.549 137.133 138.774V127.103C137.133 124.978 136.166 123.075 134.65 121.809C135.929 116.01 139.014 110.72 143.591 106.613C150.309 100.583 154.162 91.9514 154.162 82.9307C154.162 65.3874 139.889 51.115 122.346 51.1147ZM117.623 151.779C117.623 152.621 116.937 153.307 116.094 153.307C115.251 153.307 114.565 152.621 114.565 151.779V145.669H117.623V151.779ZM128.597 153.307C127.754 153.307 127.069 152.621 127.069 151.779V145.669H130.126V151.779C130.126 152.621 129.44 153.307 128.597 153.307ZM134.145 138.774C134.145 140.928 132.392 142.681 130.238 142.681H114.453C112.299 142.681 110.547 140.928 110.547 138.774V127.103C110.547 124.95 112.299 123.197 114.453 123.197H130.238C132.392 123.197 134.145 124.949 134.145 127.103V138.774Z" fill="#0000CC"/>
<path d="M152.559 51.4197L147.815 56.1639C147.231 56.7475 147.231 57.6936 147.815 58.2769C148.107 58.5685 148.489 58.7144 148.872 58.7144C149.254 58.7144 149.636 58.5685 149.928 58.2769L154.672 53.5327C155.256 52.9491 155.256 52.003 154.672 51.4197C154.088 50.8363 153.143 50.8363 152.559 51.4197Z" fill="#0000CC"/>
<path d="M95.8198 58.7146C96.202 58.7146 96.5845 58.5688 96.8765 58.2771C97.4601 57.6935 97.4601 56.7474 96.8765 56.1641L92.1323 51.4199C91.5487 50.8366 90.6029 50.8366 90.0193 51.4199C89.4356 52.0035 89.4356 52.9496 90.0193 53.5329L94.7631 58.2771C95.0551 58.5688 95.4376 58.7146 95.8198 58.7146Z" fill="#0000CC"/>
<path d="M166.568 82.2522H159.859C159.034 82.2522 158.365 82.9213 158.365 83.7463C158.365 84.5714 159.034 85.2405 159.859 85.2405H166.568C167.393 85.2405 168.062 84.5714 168.062 83.7463C168.062 82.9213 167.393 82.2522 166.568 82.2522Z" fill="#0000CC"/>
<path d="M78.1235 85.2405H84.8328C85.6579 85.2405 86.327 84.5714 86.327 83.7463C86.327 82.9213 85.6579 82.2522 84.8328 82.2522H78.1235C77.2985 82.2522 76.6294 82.9213 76.6294 83.7463C76.6294 84.5714 77.2982 85.2405 78.1235 85.2405Z" fill="#0000CC"/>
<path d="M122.345 47.7274C123.171 47.7274 123.84 47.0583 123.84 46.2332V39.5239C123.84 38.6989 123.171 38.0298 122.345 38.0298C121.52 38.0298 120.851 38.6989 120.851 39.5239V46.2332C120.851 47.0583 121.52 47.7274 122.345 47.7274Z" fill="#0000CC"/>
<g opacity="0.1">
<g opacity="0.1">
<path opacity="0.1" d="M74.9137 117.359C74.6498 117.359 74.3824 117.289 74.1403 117.142C72.4364 116.109 70.48 115.562 68.4826 115.562C66.485 115.562 64.5285 116.109 62.8246 117.142C62.1191 117.571 61.2002 117.345 60.7723 116.64C60.3443 115.934 60.5694 115.015 61.2749 114.587C63.4462 113.27 65.9384 112.574 68.4826 112.574C71.0268 112.574 73.5191 113.27 75.6903 114.587C76.3959 115.015 76.6209 115.934 76.193 116.64C75.9115 117.103 75.4187 117.359 74.9137 117.359Z" fill="#0000CC"/>
</g>
<g opacity="0.1">
<path opacity="0.1" d="M71.2175 121.634C70.9534 121.634 70.6862 121.564 70.4439 121.417C69.2632 120.7 67.7015 120.7 66.5205 121.417C65.8147 121.845 64.8964 121.62 64.4679 120.914C64.04 120.209 64.2647 119.29 64.9702 118.862C66.0281 118.22 67.2425 117.881 68.4821 117.881C69.7216 117.881 70.9357 118.22 71.9939 118.862C72.6994 119.29 72.9241 120.209 72.4962 120.914C72.2153 121.377 71.7225 121.634 71.2175 121.634Z" fill="#0000CC"/>
</g>
<g opacity="0.1">
<path opacity="0.1" d="M78.3332 112.862C78.0693 112.862 77.8019 112.792 77.5598 112.645C74.8261 110.987 71.6872 110.11 68.4826 110.11C65.278 110.11 62.1391 110.987 59.4054 112.645C58.6999 113.074 57.781 112.848 57.3531 112.143C56.9251 111.437 57.1502 110.518 57.8557 110.09C61.057 108.148 64.7317 107.122 68.4829 107.122C72.2341 107.122 75.9088 108.148 79.1101 110.09C79.8157 110.518 80.0407 111.437 79.6128 112.143C79.331 112.606 78.8382 112.862 78.3332 112.862Z" fill="#0000CC"/>
</g>
</g>
<path d="M169.855 72.736C169.472 72.736 169.09 72.5902 168.798 72.2985L165.511 69.0114C164.928 68.4278 164.928 67.4817 165.511 66.8984L168.798 63.6113C169.382 63.028 170.328 63.028 170.911 63.6113L174.198 66.8984C174.782 67.482 174.782 68.4281 174.198 69.0114L170.911 72.2985C170.62 72.5902 170.237 72.736 169.855 72.736ZM168.681 67.9548L169.855 69.1289L171.029 67.9548L169.855 66.7807L168.681 67.9548Z" fill="#6583FE"/>
<path d="M57.136 92.0312C56.7535 92.0312 56.3713 91.8854 56.0793 91.5937L52.7922 88.3066C52.2086 87.723 52.2086 86.7769 52.7922 86.1936L56.0793 82.9065C56.6629 82.3232 57.6087 82.3232 58.1923 82.9065L61.4794 86.1936C62.063 86.7772 62.063 87.7233 61.4794 88.3066L58.1923 91.5937C57.9007 91.8854 57.5182 92.0312 57.136 92.0312ZM55.9619 87.2499L57.136 88.424L58.3101 87.2499L57.136 86.0758L55.9619 87.2499Z" fill="#6583FE"/>
<path d="M148.872 145.69C148.489 145.69 148.107 145.545 147.815 145.253L144.528 141.966C143.944 141.382 143.944 140.436 144.528 139.853L147.815 136.566C148.399 135.982 149.345 135.982 149.928 136.566L153.215 139.853C153.799 140.436 153.799 141.382 153.215 141.966L149.928 145.253C149.637 145.544 149.254 145.69 148.872 145.69ZM147.698 140.909L148.872 142.083L150.046 140.909L148.872 139.735L147.698 140.909Z" fill="#6583FE"/>
<path d="M72.7135 68.7018C70.5695 68.7018 68.8252 66.9575 68.8252 64.8134C68.8252 62.6693 70.5695 60.925 72.7135 60.925C74.8576 60.925 76.6019 62.6693 76.6019 64.8134C76.6019 66.9575 74.8573 68.7018 72.7135 68.7018ZM72.7135 63.9133C72.2172 63.9133 71.8135 64.317 71.8135 64.8134C71.8135 65.3098 72.2172 65.7135 72.7135 65.7135C73.2099 65.7135 73.6136 65.3098 73.6136 64.8134C73.6136 64.317 73.2099 63.9133 72.7135 63.9133Z" fill="#6583FE"/>
<path d="M159.859 132.558C157.715 132.558 155.971 130.814 155.971 128.67C155.971 126.526 157.715 124.781 159.859 124.781C162.003 124.781 163.747 126.526 163.747 128.67C163.747 130.814 162.003 132.558 159.859 132.558ZM159.859 127.77C159.363 127.77 158.959 128.173 158.959 128.67C158.959 129.166 159.363 129.57 159.859 129.57C160.355 129.57 160.759 129.166 160.759 128.67C160.759 128.173 160.355 127.77 159.859 127.77Z" fill="#6583FE"/>
<circle cx="108" cy="108" r="106.5" stroke="#0000CC" stroke-width="3"/>
<defs>
<linearGradient id="paint0_linear" x1="108.5" y1="30.8713" x2="108.5" y2="220.502" gradientUnits="userSpaceOnUse">
<stop stop-color="#D2DEFF" stop-opacity="0"/>
<stop offset="1" stop-color="#B7C5FF"/>
</linearGradient>
</defs>
</svg>
