<svg width="216" height="216" viewBox="0 0 216 216" fill="none" xmlns="http://www.w3.org/2000/svg">
<path d="M139.946 114.385C122.985 114.385 109.235 100.635 109.235 83.6743V64.1814C109.235 46.408 94.8271 32 77.0537 32C59.2803 32 44.8723 46.408 44.8723 64.1814V89.9266C44.8723 142.434 87.438 185 139.946 185C157.719 185 172.127 170.592 172.127 152.819V146.566C172.127 128.793 157.719 114.385 139.946 114.385Z" fill="url(#paint0_linear)"/>
<path opacity="0.1" d="M167.082 121.659V70.6455C167.082 68.1682 165.077 66.1631 162.6 66.1631H54.3999C51.9226 66.1631 49.9175 68.1682 49.9175 70.6455V121.659C47.2439 121.931 45.1482 124.295 45.1482 127.047V152.119C45.1482 163.337 54.2418 172.43 65.4592 172.43H77.6302C88.8476 172.43 97.9413 163.337 97.9413 152.119V136.071H119.059V152.119C119.059 163.337 128.152 172.43 139.37 172.43H151.541C162.758 172.43 171.852 163.337 171.852 152.119V127.047C171.852 124.295 169.756 121.932 167.082 121.659Z" fill="#2626BC"/>
<path d="M167.082 62.5771V123.52C167.082 125.997 165.077 128.003 162.6 128.003H54.3999C51.9226 128.003 49.9175 125.997 49.9175 123.52V62.5771C49.9175 60.0999 51.9226 58.0947 54.3999 58.0947H162.6C165.077 58.0947 167.082 60.0999 167.082 62.5771Z" fill="white"/>
<path d="M108.5 59.0554V115.659C108.5 117.309 107.161 118.648 105.511 118.648H62.7791C61.1295 118.648 59.7908 117.309 59.7908 115.659V54.573C59.7908 52.9235 61.1295 51.5847 62.7791 51.5847H101.029C105.156 51.5847 108.5 54.9286 108.5 59.0554Z" fill="white"/>
<path d="M67.97 111.787H98.489C99.314 111.787 99.9831 111.118 99.9831 110.293V96.0725C99.9831 95.2474 99.314 94.5784 98.489 94.5784H67.97C67.1449 94.5784 66.4758 95.2474 66.4758 96.0725V110.293C66.4758 111.118 67.1446 111.787 67.97 111.787Z" fill="#6583FE"/>
<path d="M111.488 118.648H154.22C155.871 118.648 157.208 117.31 157.208 115.66V54.5737C157.208 52.9233 155.871 51.5854 154.22 51.5854H115.97C111.845 51.5854 108.5 54.9302 108.5 59.0562V115.66C108.5 117.31 109.838 118.648 111.488 118.648Z" fill="white"/>
<path d="M157.209 85.4905V54.5737C157.209 52.9233 155.871 51.5854 154.22 51.5854H115.97C111.845 51.5854 108.5 54.9302 108.5 59.0562V85.4905H157.209Z" fill="#6583FE"/>
<path d="M129.95 91.7385H116.945C116.119 91.7385 115.45 91.0694 115.45 90.2444C115.45 89.4193 116.119 88.7502 116.945 88.7502H129.95C130.775 88.7502 131.444 89.4193 131.444 90.2444C131.444 91.0694 130.775 91.7385 129.95 91.7385Z" fill="#2626BC"/>
<path d="M129.95 97.5667H116.945C116.119 97.5667 115.45 96.8976 115.45 96.0725C115.45 95.2474 116.119 94.5784 116.945 94.5784H129.95C130.775 94.5784 131.444 95.2474 131.444 96.0725C131.444 96.8976 130.775 97.5667 129.95 97.5667Z" fill="#2626BC"/>
<path d="M129.95 103.395H116.945C116.119 103.395 115.45 102.725 115.45 101.9C115.45 101.075 116.119 100.406 116.945 100.406H129.95C130.775 100.406 131.444 101.075 131.444 101.9C131.444 102.725 130.775 103.395 129.95 103.395Z" fill="#2626BC"/>
<path d="M148.764 91.7385H135.759C134.934 91.7385 134.265 91.0694 134.265 90.2444C134.265 89.4193 134.934 88.7502 135.759 88.7502H148.764C149.589 88.7502 150.258 89.4193 150.258 90.2444C150.258 91.0694 149.589 91.7385 148.764 91.7385Z" fill="#2626BC"/>
<path d="M148.764 97.5667H135.759C134.934 97.5667 134.265 96.8976 134.265 96.0725C134.265 95.2474 134.934 94.5784 135.759 94.5784H148.764C149.589 94.5784 150.258 95.2474 150.258 96.0725C150.258 96.8976 149.589 97.5667 148.764 97.5667Z" fill="#2626BC"/>
<path d="M148.764 103.395H135.759C134.934 103.395 134.265 102.725 134.265 101.9C134.265 101.075 134.934 100.406 135.759 100.406H148.764C149.589 100.406 150.258 101.075 150.258 101.9C150.258 102.725 149.589 103.395 148.764 103.395Z" fill="#2626BC"/>
<path d="M113.38 157.257H112.484V156.361C112.484 155.535 111.815 154.867 110.99 154.867C110.164 154.867 109.496 155.535 109.496 156.361V157.257H108.599C107.774 157.257 107.105 157.926 107.105 158.751C107.105 159.577 107.774 160.246 108.599 160.246H109.496V161.142C109.496 161.967 110.164 162.636 110.99 162.636C111.815 162.636 112.484 161.967 112.484 161.142V160.246H113.38C114.206 160.246 114.875 159.577 114.875 158.751C114.875 157.926 114.206 157.257 113.38 157.257Z" fill="#6583FE"/>
<path d="M169.473 45.99H168.576V45.0935C168.576 44.2681 167.908 43.5994 167.082 43.5994C166.257 43.5994 165.588 44.2681 165.588 45.0935V45.99H164.692C163.866 45.99 163.198 46.6588 163.198 47.4841C163.198 48.3095 163.866 48.9783 164.692 48.9783H165.588V49.8748C165.588 50.7001 166.257 51.3689 167.082 51.3689C167.908 51.3689 168.576 50.7001 168.576 49.8748V48.9783H169.473C170.298 48.9783 170.967 48.3095 170.967 47.4841C170.967 46.6588 170.298 45.99 169.473 45.99Z" fill="#6583FE"/>
<path d="M122.545 171.999C122.163 171.999 121.78 171.854 121.488 171.562L120.154 170.228L118.82 171.562C118.237 172.145 117.29 172.145 116.707 171.562C116.124 170.978 116.124 170.032 116.707 169.449L119.098 167.058C119.681 166.475 120.628 166.475 121.211 167.058L123.601 169.449C124.185 170.032 124.185 170.978 123.601 171.562C123.31 171.854 122.927 171.999 122.545 171.999Z" fill="#6583FE"/>
<path d="M79.2145 176.183C78.832 176.183 78.4498 176.037 78.1579 175.745L76.8239 174.411L75.4899 175.745C74.9063 176.329 73.9605 176.329 73.3769 175.745C72.7933 175.162 72.7933 174.216 73.3769 173.633L75.7675 171.242C76.3512 170.658 77.2969 170.658 77.8806 171.242L80.2712 173.633C80.8548 174.216 80.8548 175.162 80.2712 175.745C79.9792 176.037 79.597 176.183 79.2145 176.183Z" fill="#6583FE"/>
<path d="M110.89 45.3924C110.508 45.3924 110.125 45.2466 109.834 44.9547L108.5 43.621L107.166 44.955C106.582 45.5386 105.636 45.5386 105.053 44.955C104.469 44.3717 104.469 43.4256 105.053 42.8422L107.443 40.4516C108.027 39.868 108.973 39.868 109.556 40.4516L111.947 42.8422C112.531 43.4256 112.531 44.3717 111.947 44.955C111.655 45.2466 111.273 45.3924 110.89 45.3924Z" fill="#6583FE"/>
<path d="M119.058 128.005V144.051C119.058 155.269 128.152 164.362 139.369 164.362H151.54C162.758 164.362 171.851 155.269 171.851 144.051V118.979C171.851 116.02 169.43 113.507 166.471 113.562C163.602 113.616 161.293 115.959 161.293 118.841V115.454C161.293 112.538 158.929 110.175 156.014 110.175C153.098 110.175 150.734 112.538 150.734 115.454V113.263C150.734 110.347 148.37 107.983 145.455 107.983C142.539 107.983 140.175 110.347 140.175 113.263V99.3562C140.175 96.3972 137.754 93.884 134.795 93.9396C131.926 93.9934 129.617 96.3359 129.617 99.2181V128.005L119.058 128.005Z" fill="white"/>
<path d="M97.9413 128.005V144.051C97.9413 155.269 88.8476 164.362 77.6302 164.362H65.4592C54.2418 164.362 45.1482 155.269 45.1482 144.051V118.979C45.1482 116.02 47.5696 113.507 50.5283 113.562C53.3973 113.616 55.7067 115.959 55.7067 118.841V115.454C55.7067 112.538 58.0704 110.175 60.9861 110.175C63.9017 110.175 66.2655 112.538 66.2655 115.454V113.263C66.2655 110.347 68.6292 107.983 71.5449 107.983C74.4605 107.983 76.8243 110.347 76.8243 113.263V99.3562C76.8243 96.3972 79.2457 93.884 82.2044 93.9396C85.0734 93.9934 87.3828 96.3359 87.3828 99.2181V128.005L97.9413 128.005Z" fill="white"/>
<path d="M171.249 114.006C170.475 113.247 169.565 112.696 168.577 112.379V62.5779C168.577 59.2824 165.896 56.6013 162.601 56.6013H158.703V54.5735C158.703 52.1019 156.692 50.0911 154.22 50.0911H143.851C143.026 50.0911 142.357 50.7598 142.357 51.5852C142.357 52.4106 143.026 53.0793 143.851 53.0793H154.22C155.044 53.0793 155.714 53.7496 155.714 54.5735V108.695C154.132 108.764 152.688 109.371 151.568 110.347C150.477 108.068 148.147 106.489 145.455 106.489C144.054 106.489 142.751 106.917 141.67 107.648V99.3562C141.67 97.5034 140.906 95.6907 139.574 94.3834C138.266 93.1002 136.56 92.4114 134.767 92.4455C131.103 92.5142 128.123 95.5524 128.123 99.2178V117.154H111.488C110.664 117.154 109.994 116.483 109.994 115.66V59.0559C109.994 55.7604 112.675 53.0793 115.97 53.0793H134.707C135.532 53.0793 136.201 52.4106 136.201 51.5852C136.201 50.7598 135.532 50.0911 134.707 50.0911H115.97C112.855 50.0911 110.107 51.6895 108.499 54.1082C106.892 51.6895 104.144 50.0914 101.029 50.0914H62.7791C60.3074 50.0914 58.2966 52.1022 58.2966 54.5738V56.6013H54.3987C51.1032 56.6013 48.4222 59.2824 48.4222 62.5779V112.387C47.4357 112.703 46.5228 113.247 45.7503 114.006C44.4182 115.313 43.6541 117.126 43.6541 118.979V144.051C43.6541 156.074 53.4356 165.856 65.4592 165.856H77.6302C89.6536 165.856 99.4354 156.075 99.4354 144.051V129.499H117.564V144.051C117.564 156.075 127.346 165.856 139.37 165.856H151.541C163.564 165.856 173.346 156.075 173.346 144.051V118.979C173.346 117.126 172.582 115.313 171.249 114.006ZM162.601 59.5896C164.249 59.5896 165.589 60.9302 165.589 62.5779V112.145C164.438 112.315 163.376 112.774 162.486 113.453C161.899 111.56 160.502 110.019 158.703 109.238V59.5896H162.601ZM111.488 120.142H128.123V126.511H88.8766V120.142H105.511C106.66 120.142 107.705 119.704 108.499 118.991C109.294 119.704 110.339 120.142 111.488 120.142ZM54.3987 59.5896H58.2966V109.238C56.4971 110.019 55.1007 111.56 54.5141 113.453C53.6242 112.775 52.5624 112.315 51.4104 112.145V62.5779C51.4104 60.9305 52.751 59.5896 54.3987 59.5896ZM96.4471 144.051C96.4471 154.427 88.0058 162.868 77.6302 162.868H65.4592C55.0836 162.868 46.6423 154.427 46.6423 144.051V118.979C46.6423 117.923 47.0801 116.888 47.8436 116.139C48.5569 115.438 49.474 115.056 50.433 115.056C50.4554 115.056 50.4778 115.056 50.5005 115.056C52.5478 115.095 54.2128 116.792 54.2128 118.841V127.806C54.2128 128.631 54.8819 129.3 55.707 129.3C56.5321 129.3 57.2011 128.631 57.2011 127.806V115.454C57.2011 113.367 58.8991 111.669 60.9864 111.669C63.0737 111.669 64.7716 113.367 64.7716 115.454V127.806C64.7716 128.631 65.4407 129.3 66.2658 129.3C67.0908 129.3 67.7599 128.631 67.7599 127.806V113.263C67.7599 111.176 69.4579 109.477 71.5452 109.477C73.6322 109.477 75.3304 111.176 75.3304 113.263V127.806C75.3304 128.631 75.9995 129.3 76.8246 129.3C77.6496 129.3 78.3187 128.631 78.3187 127.806V99.3562C78.3187 98.3004 78.7565 97.265 79.5197 96.5158C80.2497 95.7995 81.1931 95.4227 82.1766 95.4334C84.2239 95.4717 85.8889 97.1696 85.8889 99.2178V109.504C85.8889 110.329 86.558 110.998 87.3831 110.998C88.2081 110.998 88.8772 110.329 88.8772 109.504V99.2178C88.8772 95.5521 85.8964 92.5142 82.2325 92.4458C80.4356 92.4003 78.7335 93.0999 77.4264 94.3831C76.0942 95.6904 75.3301 97.5028 75.3301 99.3562V107.648C74.2487 106.917 72.9458 106.489 71.5449 106.489C68.853 106.489 66.5228 108.068 65.4315 110.347C64.3111 109.371 62.8678 108.756 61.2852 108.687V54.5738C61.2852 53.7499 61.9555 53.0796 62.7794 53.0796H101.029C104.325 53.0796 107.006 55.7607 107.006 59.0562V115.66C107.006 116.483 106.335 117.154 105.511 117.154H87.3828C86.5577 117.154 85.8886 117.823 85.8886 118.648V141.701C85.8886 142.526 86.5577 143.195 87.3828 143.195C88.2078 143.195 88.8769 142.526 88.8769 141.701V129.499H96.4471V144.051ZM170.357 144.051C170.357 154.427 161.916 162.868 151.541 162.868H139.37C128.994 162.868 120.553 154.427 120.553 144.051V129.499H128.123V141.701C128.123 142.526 128.792 143.195 129.617 143.195C130.443 143.195 131.111 142.526 131.111 141.701V99.2178C131.111 97.1696 132.777 95.4717 134.824 95.4331C134.846 95.4328 134.868 95.4326 134.891 95.4326C135.85 95.4326 136.767 95.8156 137.481 96.5158C138.244 97.265 138.682 98.3004 138.682 99.3562V127.806C138.682 128.631 139.351 129.3 140.176 129.3C141.002 129.3 141.67 128.631 141.67 127.806V113.263C141.67 111.176 143.369 109.477 145.456 109.477C147.543 109.477 149.24 111.176 149.24 113.263V127.806C149.24 128.631 149.909 129.3 150.735 129.3C151.56 129.3 152.229 128.631 152.229 127.806V115.454C152.229 113.367 153.927 111.669 156.014 111.669C158.101 111.669 159.799 113.367 159.799 115.454V127.806C159.799 128.631 160.468 129.3 161.293 129.3C162.119 129.3 162.788 128.631 162.788 127.806V118.841C162.788 116.792 164.453 115.095 166.5 115.056C167.485 115.049 168.427 115.422 169.157 116.139C169.92 116.888 170.358 117.923 170.358 118.979V144.051H170.357Z" fill="#2626BC"/>
<path d="M129.665 66.0392V73.3058C129.665 73.9979 130.416 74.4288 131.014 74.0801L137.237 70.4466C137.829 70.1006 137.829 69.2441 137.237 68.8981L131.014 65.2646C130.416 64.9159 129.665 65.3471 129.665 66.0392Z" fill="white"/>
<path d="M84.1452 89.4024C75.677 89.4024 68.7878 82.5129 68.7878 74.0447C68.7878 65.5765 75.677 58.687 84.1452 58.687C92.6134 58.687 99.5026 65.5765 99.5026 74.0447C99.5026 82.5129 92.6134 89.4024 84.1452 89.4024ZM84.1452 61.6756C77.3248 61.6756 71.7761 67.2242 71.7761 74.045C71.7761 80.8657 77.3248 86.4144 84.1452 86.4144C90.9657 86.4144 96.5143 80.8657 96.5143 74.045C96.5143 67.2242 90.9657 61.6756 84.1452 61.6756Z" fill="#2626BC"/>
<path d="M84.1453 89.4024C79.2347 89.4024 76.585 81.4897 76.585 74.0447C76.585 66.5997 79.2347 58.687 84.1453 58.687C89.056 58.687 91.7057 66.5997 91.7057 74.0447C91.7057 81.4897 89.056 89.4024 84.1453 89.4024ZM84.1453 61.6756C82.2812 61.6756 79.5732 66.4942 79.5732 74.045C79.5732 77.5466 80.1598 80.8149 81.2246 83.2489C82.0789 85.2014 83.198 86.4144 84.1453 86.4144C86.0094 86.4144 88.7174 81.5958 88.7174 74.045C88.7174 70.5433 88.1308 67.275 87.0661 64.8411C86.2117 62.8882 85.0926 61.6756 84.1453 61.6756Z" fill="#2626BC"/>
<path d="M84.1453 71.1663C79.2564 71.1663 74.6554 70.0768 71.8374 68.2515C71.1448 67.803 70.9469 66.8778 71.3955 66.1854C71.844 65.493 72.7692 65.2943 73.4619 65.7435C75.8157 67.2678 79.8096 68.1777 84.1453 68.1777C88.4783 68.1777 92.6024 67.225 94.9082 65.6912C95.5949 65.2343 96.5224 65.4204 96.9799 66.1077C97.4369 66.795 97.2504 67.7223 96.5634 68.1795C93.7517 70.0499 89.1094 71.1663 84.1453 71.1663Z" fill="#2626BC"/>
<path d="M72.5221 82.6711C72.0412 82.6711 71.5688 82.4392 71.2804 82.0098C70.8202 81.3249 71.0025 80.3967 71.6874 79.9365C74.4964 78.0497 79.1536 76.9229 84.1453 76.9229C89.0341 76.9229 93.6352 78.0124 96.4531 79.8376C97.1458 80.2862 97.3436 81.2113 96.8951 81.9037C96.4468 82.5964 95.5217 82.7951 94.8287 82.3457C92.4748 80.8214 88.481 79.9114 84.1453 79.9114C79.7898 79.9114 75.6547 80.8716 73.3537 82.4174C73.0982 82.5889 72.8083 82.6711 72.5221 82.6711Z" fill="#2626BC"/>
<circle cx="108" cy="108" r="106.5" stroke="#0000CC" stroke-width="3"/>
<defs>
<linearGradient id="paint0_linear" x1="183.353" y1="65.2515" x2="21.9695" y2="158.495" gradientUnits="userSpaceOnUse">
<stop stop-color="#D2DEFF" stop-opacity="0"/>
<stop offset="1" stop-color="#B7C5FF"/>
</linearGradient>
</defs>
</svg>
