<svg width="216" height="216" viewBox="0 0 216 216" fill="none" xmlns="http://www.w3.org/2000/svg">
<path d="M154.864 78.3638C145.902 78.3638 138.637 71.0987 138.637 62.1365C138.637 45.4924 125.144 32 108.5 32C91.8562 32 78.3638 45.4924 78.3638 62.1362C78.3638 71.0984 71.0987 78.3635 62.1365 78.3635C45.4924 78.3638 32 91.8562 32 108.5C32 125.144 45.4924 138.636 62.1362 138.636C71.0984 138.636 78.3635 145.901 78.3635 154.863C78.3638 171.508 91.8562 185 108.5 185C125.144 185 138.636 171.508 138.636 154.864C138.636 145.902 145.901 138.637 154.863 138.637C171.508 138.636 185 125.144 185 108.5C185 91.8562 171.508 78.3638 154.864 78.3638Z" fill="url(#paint0_linear)"/>
<path opacity="0.1" d="M74.7949 170.906V61.7408C74.7949 59.019 77.0015 56.8125 79.7232 56.8125H140.143C142.865 56.8125 145.072 59.019 145.072 61.7408V170.906C145.072 173.628 142.865 175.835 140.143 175.835H79.7232C77.0015 175.835 74.7949 173.628 74.7949 170.906Z" fill="#2626BC"/>
<path d="M74.7949 162.036V52.8702C74.7949 50.1484 77.0015 47.9419 79.7232 47.9419H140.143C142.865 47.9419 145.072 50.1484 145.072 52.8702V162.036C145.072 164.757 142.865 166.964 140.143 166.964H79.7232C77.0015 166.964 74.7949 164.757 74.7949 162.036Z" fill="#6583FE"/>
<path d="M74.7952 57.7996H145.071V157.106H74.7952V57.7996Z" fill="white"/>
<path d="M104.355 114.371H85.9643C85.0986 114.371 84.397 113.67 84.397 112.804V94.4133C84.397 93.5476 85.0986 92.8459 85.9643 92.8459H104.355C105.221 92.8459 105.922 93.5476 105.922 94.4133V112.804C105.922 113.67 105.221 114.371 104.355 114.371Z" fill="#6583FE"/>
<path d="M145.071 157.106H101.116V110.574C101.116 110.074 101.235 109.582 101.464 109.137L121.7 69.8829C122.284 68.7506 123.903 68.7506 124.487 69.8829L144.723 109.137C144.952 109.581 145.071 110.074 145.071 110.574V157.106H145.071Z" fill="white"/>
<path d="M134.16 88.647C131.213 90.6346 127.339 91.8412 123.094 91.8412C118.847 91.8412 114.972 90.6343 112.025 88.647L121.699 69.8824C122.285 68.7508 123.903 68.7508 124.486 69.8824L134.16 88.647Z" fill="#6583FE"/>
<path d="M101.116 157.106H115.768V117.139C115.768 113.093 112.488 109.813 108.442 109.813C104.396 109.813 101.116 113.093 101.116 117.139L101.116 157.106Z" fill="#6583FE"/>
<path d="M117.262 158.6H99.6218L99.6221 117.139C99.6221 112.275 103.579 108.319 108.442 108.319C113.305 108.319 117.262 112.275 117.262 117.139V158.6ZM102.61 155.612H114.274V117.139C114.274 113.923 111.657 111.307 108.442 111.307C105.226 111.307 102.61 113.923 102.61 117.139V155.612Z" fill="#2626BC"/>
<path d="M115.768 157.106H130.42V117.139C130.42 113.093 127.14 109.813 123.094 109.813C119.048 109.813 115.768 113.093 115.768 117.139L115.768 157.106Z" fill="white"/>
<path d="M131.914 158.6H114.274L114.274 117.139C114.274 112.275 118.231 108.319 123.094 108.319C127.958 108.319 131.914 112.275 131.914 117.139V158.6H131.914ZM117.262 155.612H128.925V117.139C128.925 113.923 126.309 111.307 123.094 111.307C119.878 111.307 117.262 113.923 117.262 117.139V155.612Z" fill="#2626BC"/>
<path d="M130.42 157.106H145.072V117.139C145.072 113.093 141.792 109.813 137.746 109.813C133.7 109.813 130.42 113.093 130.42 117.139L130.42 157.106Z" fill="#6583FE"/>
<path d="M146.566 158.6H128.926L128.926 117.139C128.926 112.275 132.882 108.319 137.746 108.319C142.609 108.319 146.566 112.275 146.566 117.139V158.6H146.566ZM131.914 155.612H143.577V117.139C143.577 113.923 140.961 111.307 137.746 111.307C134.53 111.307 131.914 113.923 131.914 117.139V155.612H131.914Z" fill="#2626BC"/>
<path d="M146.565 157.106H143.577V110.574C143.577 110.313 143.514 110.053 143.395 109.822L123.159 70.567C123.147 70.5449 123.138 70.5273 123.094 70.5273C123.049 70.5273 123.04 70.5449 123.028 70.567L102.792 109.822C102.673 110.053 102.61 110.314 102.61 110.574V157.106H99.6218V110.574C99.6218 109.839 99.7996 109.106 100.136 108.453L120.372 69.1981C120.9 68.1749 121.942 67.5393 123.093 67.5393C124.244 67.5393 125.287 68.1749 125.814 69.1981L146.05 108.452C146.387 109.105 146.565 109.839 146.565 110.574V157.106H146.565Z" fill="#2626BC"/>
<path d="M140.143 168.458H101.717C100.892 168.458 100.223 167.789 100.223 166.964C100.223 166.139 100.892 165.47 101.717 165.47H140.143C142.037 165.47 143.577 163.93 143.577 162.036V72.4316C143.577 71.6066 144.246 70.9375 145.072 70.9375C145.897 70.9375 146.566 71.6066 146.566 72.4316V162.036C146.566 165.577 143.684 168.458 140.143 168.458Z" fill="#2626BC"/>
<path d="M92.5722 168.458H79.7232C76.1818 168.458 73.3008 165.577 73.3008 162.036V52.8702C73.3008 49.3288 76.1821 46.4478 79.7232 46.4478H140.143C143.684 46.4478 146.565 49.3288 146.565 52.8702V63.2873C146.565 64.1124 145.897 64.7815 145.071 64.7815C144.246 64.7815 143.577 64.1124 143.577 63.2873V52.8702C143.577 50.9768 142.037 49.436 140.143 49.436H79.7232C77.8295 49.436 76.2891 50.9765 76.2891 52.8702V162.036C76.2891 163.929 77.8295 165.47 79.7232 165.47H92.5722C93.3976 165.47 94.0664 166.139 94.0664 166.964C94.0664 167.789 93.3976 168.458 92.5722 168.458Z" fill="#2626BC"/>
<path d="M94.1278 79.4012L89.7542 76.4216L85.3805 79.4012C84.2901 80.1441 82.813 79.3633 82.813 78.0437V57.7996H96.6956V78.0437C96.6953 79.3633 95.2182 80.1441 94.1278 79.4012Z" fill="#6583FE"/>
<path d="M126.15 54.9705C126.945 54.9705 127.589 54.3263 127.589 53.5316C127.589 52.737 126.945 52.0928 126.15 52.0928C125.356 52.0928 124.711 52.737 124.711 53.5316C124.711 54.3263 125.356 54.9705 126.15 54.9705Z" fill="#2626BC"/>
<path d="M131.026 54.9705C131.821 54.9705 132.465 54.3263 132.465 53.5316C132.465 52.737 131.821 52.0928 131.026 52.0928C130.231 52.0928 129.587 52.737 129.587 53.5316C129.587 54.3263 130.231 54.9705 131.026 54.9705Z" fill="#2626BC"/>
<path d="M63.9908 64.5958H62.9792V63.5842C62.9792 62.7592 62.3105 62.0901 61.4851 62.0901C60.6597 62.0901 59.991 62.7592 59.991 63.5842V64.5958H58.9797C58.1544 64.5958 57.4856 65.2648 57.4856 66.0899C57.4856 66.915 58.1544 67.584 58.9797 67.584H59.991V68.5953C59.991 69.4203 60.6597 70.0894 61.4851 70.0894C62.3105 70.0894 62.9792 69.4203 62.9792 68.5953V67.584H63.9908C64.8161 67.584 65.4849 66.915 65.4849 66.0899C65.4849 65.2648 64.8158 64.5958 63.9908 64.5958Z" fill="#6583FE"/>
<path d="M60.5196 85.4907H59.5081V84.4795C59.5081 83.6544 58.8393 82.9854 58.014 82.9854C57.1886 82.9854 56.5198 83.6544 56.5198 84.4795V85.4907H55.5083C54.6829 85.4907 54.0142 86.1598 54.0142 86.9849C54.0142 87.8099 54.6829 88.479 55.5083 88.479H56.5198V89.4905C56.5198 90.3156 57.1886 90.9847 58.014 90.9847C58.8393 90.9847 59.5081 90.3156 59.5081 89.4905V88.479H60.5196C61.345 88.479 62.0138 87.8099 62.0138 86.9849C62.0138 86.1598 61.345 85.4907 60.5196 85.4907Z" fill="#6583FE"/>
<path d="M158.604 100.245H157.593V99.2334C157.593 98.4083 156.924 97.7393 156.099 97.7393C155.274 97.7393 154.605 98.4083 154.605 99.2334V100.245H153.593C152.768 100.245 152.099 100.914 152.099 101.739C152.099 102.564 152.768 103.233 153.593 103.233H154.605V104.244C154.605 105.07 155.274 105.739 156.099 105.739C156.924 105.739 157.593 105.07 157.593 104.244V103.233H158.604C159.43 103.233 160.098 102.564 160.098 101.739C160.098 100.914 159.43 100.245 158.604 100.245Z" fill="#6583FE"/>
<path d="M158.604 88.479C158.222 88.479 157.839 88.3331 157.548 88.0415L156.099 86.5924L154.65 88.0415C154.067 88.6248 153.12 88.6248 152.537 88.0415C151.953 87.4579 151.953 86.5118 152.537 85.9285L155.043 83.4231C155.323 83.1428 155.703 82.9856 156.099 82.9856C156.495 82.9856 156.875 83.1431 157.155 83.4231L159.661 85.9285C160.244 86.5121 160.244 87.4582 159.661 88.0415C159.369 88.3331 158.986 88.479 158.604 88.479Z" fill="#6583FE"/>
<path d="M66.4961 150.252C66.1139 150.252 65.7311 150.106 65.4398 149.814L63.9905 148.365L62.5411 149.814C61.9581 150.398 61.0114 150.398 60.4284 149.814C59.8448 149.231 59.8448 148.285 60.4284 147.701L62.9341 145.196C63.5171 144.612 64.4638 144.612 65.0468 145.196L67.5525 147.701C68.1361 148.285 68.1361 149.231 67.5525 149.814C67.2611 150.106 66.8786 150.252 66.4961 150.252Z" fill="#6583FE"/>
<path d="M118.163 148.758H87.0847C86.2597 148.758 85.5906 148.089 85.5906 147.264V140.728C85.5906 139.903 86.2597 139.234 87.0847 139.234H118.163C118.988 139.234 119.657 139.903 119.657 140.728V147.264C119.657 148.089 118.988 148.758 118.163 148.758Z" fill="white"/>
<path d="M118.163 150.252H87.0847C85.437 150.252 84.0964 148.911 84.0964 147.264V140.728C84.0964 139.08 85.437 137.74 87.0847 137.74H118.163C119.811 137.74 121.151 139.08 121.151 140.728V147.264C121.151 148.911 119.811 150.252 118.163 150.252ZM87.0847 140.728V147.264H118.165L118.163 140.728H87.0847Z" fill="#2626BC"/>
<path d="M101.882 126.892H87.0845C86.2591 126.892 85.5903 126.223 85.5903 125.398C85.5903 124.573 86.2591 123.904 87.0845 123.904H101.882C102.708 123.904 103.377 124.573 103.377 125.398C103.377 126.223 102.708 126.892 101.882 126.892Z" fill="#2626BC"/>
<path d="M109.951 132.122H87.0845C86.2591 132.122 85.5903 131.453 85.5903 130.628C85.5903 129.803 86.2591 129.134 87.0845 129.134H109.951C110.776 129.134 111.445 129.803 111.445 130.628C111.445 131.453 110.776 132.122 109.951 132.122Z" fill="#2626BC"/>
<path d="M87.5471 121.498C88.3723 121.498 89.0413 120.829 89.0413 120.003C89.0413 119.178 88.3723 118.509 87.5471 118.509C86.7219 118.509 86.053 119.178 86.053 120.003C86.053 120.829 86.7219 121.498 87.5471 121.498Z" fill="#2626BC"/>
<path d="M92.4031 121.498C93.2283 121.498 93.8972 120.829 93.8972 120.003C93.8972 119.178 93.2283 118.509 92.4031 118.509C91.5779 118.509 90.9089 119.178 90.9089 120.003C90.9089 120.829 91.5779 121.498 92.4031 121.498Z" fill="#2626BC"/>
<path d="M74.7952 155.612H145.071V158.6H74.7952V155.612Z" fill="#2626BC"/>
<path d="M74.7952 56.3054H145.071V59.2937H74.7952V56.3054Z" fill="#2626BC"/>
<circle cx="108" cy="108" r="106.5" stroke="#0000CC" stroke-width="3"/>
<defs>
<linearGradient id="paint0_linear" x1="162.613" y1="54.3867" x2="30.8047" y2="186.195" gradientUnits="userSpaceOnUse">
<stop stop-color="#D2DEFF" stop-opacity="0"/>
<stop offset="1" stop-color="#B7C5FF"/>
</linearGradient>
</defs>
</svg>
