<svg width="216" height="216" viewBox="0 0 216 216" fill="none" xmlns="http://www.w3.org/2000/svg">
<g clip-path="url(#clip0)">
<path d="M169.811 40.1734C150.759 28.8218 126.105 29.4521 107.394 41.0822C96.8816 47.6163 88.7552 57.0405 79.54 65.1534C71.465 72.2622 62.075 77.333 53.7353 84.0405C23.4909 108.366 26.3767 173.976 68.9641 182.691C87.4249 186.469 112.656 187.68 123.506 169.65C133.851 152.458 137.321 134.871 157.535 125.739C164.58 122.557 176.354 122.717 181.126 115.743C187.148 106.943 179.676 97.8006 175.69 90.1318C170.553 80.2484 169.476 70.5042 173.09 59.9023C176.168 50.8745 178.334 46.8191 169.811 40.1734Z" fill="url(#paint0_linear)"/>
<path opacity="0.1" d="M155.516 147.446C152.093 147.446 148.951 148.646 146.485 150.647L139.541 143.703C143.271 139.703 146.236 134.981 148.205 129.769C148.983 130.017 149.868 129.835 150.485 129.218L160.988 118.714C162.407 117.295 161.402 114.87 159.396 114.87H156.345V101.925C156.345 100.681 155.336 99.6731 154.093 99.6731H148.164C146.195 94.5043 143.245 89.8204 139.541 85.8475L146.485 78.9036C148.951 80.9043 152.093 82.1053 155.516 82.1053C163.438 82.1053 169.861 75.6829 169.861 67.76C169.861 59.8375 163.438 53.4148 155.516 53.4148C147.593 53.4148 141.17 59.8375 141.17 67.76C141.17 71.1831 142.371 74.3247 144.372 76.7906L137.428 83.7345C133.427 80.0045 128.706 77.0392 123.494 75.0703C123.742 74.293 123.56 73.4079 122.943 72.7911L112.439 62.2873C111.02 60.8685 108.595 61.8734 108.595 63.8798V66.9311H95.6499C94.4062 66.9311 93.3979 67.9393 93.3979 69.1831V75.1115C88.2291 77.0808 83.5453 80.0305 79.5724 83.7345L72.6285 76.7906C74.6294 74.3247 75.8301 71.1831 75.8301 67.76C75.8301 59.8375 69.4074 53.4148 61.4849 53.4148C53.5624 53.4148 47.1396 59.8375 47.1396 67.76C47.1396 75.6826 53.5621 82.1053 61.4849 82.1053C64.908 82.1053 68.0496 80.9046 70.5155 78.9036L77.4593 85.8475C73.7294 89.8482 70.7641 94.57 68.7951 99.7819C68.0179 99.5335 67.1327 99.7161 66.516 100.333L56.0122 110.837C54.5933 112.256 55.5983 114.681 57.6046 114.681H60.6559V127.626C60.6559 128.869 61.6642 129.878 62.9079 129.878H68.8364C70.8056 135.047 73.7554 139.73 77.4593 143.703L70.3804 150.782C67.9351 148.846 64.8464 147.687 61.4849 147.687C53.5624 147.687 47.1396 154.109 47.1396 162.032C47.1396 169.955 53.5624 176.377 61.4849 176.377C69.4074 176.377 75.8301 169.955 75.8301 162.032C75.8301 158.547 74.5867 155.353 72.5206 152.868L79.5724 145.816C83.5731 149.546 88.2949 152.512 93.5067 154.481C93.2584 155.258 93.441 156.143 94.0578 156.76L104.562 167.264C105.98 168.682 108.406 167.677 108.406 165.671V162.62H121.351C122.595 162.62 123.603 161.612 123.603 160.368V154.439C128.772 152.47 133.456 149.52 137.428 145.816L144.372 152.76C142.371 155.226 141.171 158.368 141.171 161.791C141.171 169.713 147.593 176.136 155.516 176.136C163.439 176.136 169.861 169.714 169.861 161.791C169.861 153.868 163.438 147.446 155.516 147.446Z" fill="#2626BC"/>
<path d="M108.5 150.037C131.936 150.037 150.934 131.039 150.934 107.603C150.934 84.1678 131.936 65.1697 108.5 65.1697C85.0648 65.1697 66.0667 84.1678 66.0667 107.603C66.0667 131.039 85.0648 150.037 108.5 150.037Z" fill="#6583FE"/>
<path d="M131.106 106.587V143.519C124.562 147.646 116.811 150.037 108.5 150.037C106.456 150.037 104.445 149.893 102.476 149.612V131.59H92.9491C91.5357 131.59 90.4629 130.32 90.69 128.922L90.8723 127.807L91.3653 124.816L91.7448 122.503L92.2349 119.514H88.1858C86.9218 119.514 85.8938 118.487 85.8938 117.225V106.587C85.8938 94.1051 96.0181 83.9868 108.5 83.9868C120.982 83.9868 131.106 94.1051 131.106 106.587Z" fill="white"/>
<path d="M97.4002 121.01C97.4002 121.835 96.7309 122.504 95.9061 122.504H91.7434L92.2365 119.516H95.9061C96.7309 119.516 97.4002 120.185 97.4002 121.01Z" fill="#2626BC"/>
<path d="M105.6 125.507C105.424 125.6 101.195 127.799 90.8708 127.808L91.3639 124.817C100.436 124.745 104.154 122.893 104.19 122.872C104.916 122.483 105.821 122.755 106.213 123.484C106.601 124.211 106.326 125.116 105.6 125.507Z" fill="#2626BC"/>
<path d="M103.287 110.351C102.461 110.351 101.792 109.682 101.792 108.857V108.054C101.792 107.229 102.461 106.56 103.287 106.56C104.112 106.56 104.781 107.229 104.781 108.054V108.857C104.781 109.682 104.112 110.351 103.287 110.351Z" fill="#2626BC"/>
<path d="M117.941 120.062C115.915 120.062 113.889 119.291 112.346 117.749C111.763 117.165 111.763 116.219 112.346 115.636C112.929 115.052 113.876 115.052 114.459 115.636C116.379 117.556 119.503 117.556 121.423 115.636C123.343 113.716 123.343 110.592 121.423 108.672C119.503 106.752 116.379 106.752 114.459 108.672C113.876 109.255 112.929 109.255 112.346 108.672C111.763 108.088 111.763 107.142 112.346 106.559C115.431 103.474 120.452 103.474 123.536 106.559C126.621 109.644 126.621 114.664 123.536 117.749C121.994 119.291 119.967 120.062 117.941 120.062Z" fill="#2626BC"/>
<path d="M169.497 63.9248C171.319 56.2161 166.547 48.4897 158.838 46.6675C151.129 44.8453 143.403 49.6173 141.581 57.326C139.759 65.0348 144.531 72.7611 152.239 74.5833C159.948 76.4056 167.675 71.6336 169.497 63.9248Z" fill="white"/>
<path d="M160.48 58.8529C160.48 56.1153 158.253 53.8884 155.515 53.8884C152.778 53.8884 150.551 56.1156 150.551 58.8529C150.551 60.203 151.094 61.4273 151.972 62.3232C151.095 63.219 150.551 64.4433 150.551 65.7934C150.551 66.6185 151.22 67.2876 152.045 67.2876C152.87 67.2876 153.539 66.6185 153.539 65.7934C153.539 64.7039 154.426 63.8173 155.515 63.8173C156.605 63.8173 157.492 64.7039 157.492 65.7934C157.492 66.6185 158.161 67.2876 158.986 67.2876C159.811 67.2876 160.48 66.6185 160.48 65.7934C160.48 64.4433 159.937 63.219 159.059 62.3232C159.937 61.4273 160.48 60.203 160.48 58.8529ZM155.515 56.8764C156.605 56.8764 157.492 57.763 157.492 58.8526C157.492 59.9421 156.605 60.8287 155.515 60.8287C154.426 60.8287 153.539 59.9421 153.539 58.8526C153.539 57.763 154.426 56.8764 155.515 56.8764Z" fill="#2626BC"/>
<path d="M71.6106 164.751C77.2119 159.15 77.2119 150.068 71.6106 144.467C66.0093 138.865 56.9277 138.865 51.3264 144.467C45.7251 150.068 45.7251 159.15 51.3264 164.751C56.9277 170.352 66.0093 170.352 71.6106 164.751Z" fill="white"/>
<path d="M66.4494 152.883C66.4494 150.146 64.2222 147.919 61.4849 147.919C58.7474 147.919 56.5205 150.146 56.5205 152.883C56.5205 154.233 57.0638 155.458 57.9411 156.354C57.0638 157.25 56.5205 158.474 56.5205 159.824C56.5205 160.649 57.1896 161.318 58.0146 161.318C58.8397 161.318 59.5088 160.649 59.5088 159.824C59.5088 158.734 60.3954 157.848 61.4849 157.848C62.5745 157.848 63.4611 158.734 63.4611 159.824C63.4611 160.649 64.1302 161.318 64.9552 161.318C65.7803 161.318 66.4494 160.649 66.4494 159.824C66.4494 158.474 65.9061 157.25 65.0284 156.354C65.9058 155.458 66.4494 154.234 66.4494 152.883ZM61.4846 150.907C62.5742 150.907 63.4608 151.794 63.4608 152.883C63.4608 153.973 62.5742 154.86 61.4846 154.86C60.3951 154.86 59.5085 153.973 59.5085 152.883C59.5085 151.794 60.3951 150.907 61.4846 150.907Z" fill="#2626BC"/>
<path d="M71.6204 70.7302C77.2217 65.1289 77.2217 56.0474 71.6204 50.446C66.019 44.8447 56.9375 44.8447 51.3362 50.446C45.7349 56.0474 45.7349 65.1289 51.3362 70.7302C56.9375 76.3315 66.019 76.3315 71.6204 70.7302Z" fill="white"/>
<path d="M66.4494 58.8529C66.4494 56.1153 64.2222 53.8884 61.4849 53.8884C58.7474 53.8884 56.5205 56.1156 56.5205 58.8529C56.5205 60.203 57.0638 61.4273 57.9411 62.3232C57.0638 63.219 56.5205 64.4433 56.5205 65.7934C56.5205 66.6185 57.1896 67.2876 58.0146 67.2876C58.8397 67.2876 59.5088 66.6185 59.5088 65.7934C59.5088 64.7039 60.3954 63.8173 61.4849 63.8173C62.5745 63.8173 63.4611 64.7039 63.4611 65.7934C63.4611 66.6185 64.1302 67.2876 64.9552 67.2876C65.7803 67.2876 66.4494 66.6185 66.4494 65.7934C66.4494 64.4433 65.9061 63.219 65.0284 62.3232C65.9058 61.4273 66.4494 60.203 66.4494 58.8529ZM61.4846 56.8764C62.5742 56.8764 63.4608 57.763 63.4608 58.8526C63.4608 59.9421 62.5742 60.8287 61.4846 60.8287C60.3951 60.8287 59.5085 59.9421 59.5085 58.8526C59.5085 57.763 60.3951 56.8764 61.4846 56.8764Z" fill="#2626BC"/>
<path d="M169.49 157.785C171.297 150.069 166.506 142.349 158.789 140.543C151.072 138.736 143.352 143.527 141.546 151.244C139.739 158.961 144.531 166.681 152.247 168.487C159.964 170.293 167.684 165.502 169.49 157.785Z" fill="white"/>
<path d="M160.48 152.884C160.48 150.146 158.253 147.919 155.516 147.919C152.778 147.919 150.551 150.146 150.551 152.884C150.551 154.234 151.095 155.458 151.972 156.354C151.095 157.25 150.551 158.474 150.551 159.824C150.551 160.649 151.22 161.318 152.045 161.318C152.87 161.318 153.54 160.649 153.54 159.824C153.54 158.734 154.426 157.848 155.516 157.848C156.605 157.848 157.492 158.735 157.492 159.824C157.492 160.649 158.161 161.318 158.986 161.318C159.811 161.318 160.48 160.649 160.48 159.824C160.48 158.474 159.937 157.25 159.059 156.354C159.937 155.458 160.48 154.234 160.48 152.884ZM155.516 150.907C156.605 150.907 157.492 151.794 157.492 152.884C157.492 153.973 156.605 154.86 155.516 154.86C154.426 154.86 153.54 153.973 153.54 152.884C153.54 151.794 154.426 150.907 155.516 150.907Z" fill="#2626BC"/>
<path d="M122.943 65.6189L112.439 55.1151C111.02 53.6963 108.595 54.7012 108.595 56.7076V59.7589H95.6502C94.4064 59.7589 93.3982 60.7671 93.3982 62.0109V72.4116C93.3982 73.6553 94.4064 74.6635 95.6502 74.6635H108.595V77.7149C108.595 79.7212 111.021 80.7262 112.439 79.3073L122.943 68.8035C123.822 67.9244 123.822 66.4984 122.943 65.6189Z" fill="white"/>
<path d="M94.0575 149.588L104.561 160.092C105.98 161.51 108.406 160.505 108.406 158.499V155.448H121.35C122.594 155.448 123.602 154.439 123.602 153.196V142.795C123.602 141.551 122.594 140.543 121.35 140.543H108.406V137.492C108.406 135.485 105.98 134.48 104.561 135.899L94.0575 146.403C93.1781 147.282 93.1781 148.708 94.0575 149.588Z" fill="white"/>
<path d="M150.485 122.046L160.988 111.542C162.407 110.123 161.402 107.698 159.396 107.698H156.345V94.7529C156.345 93.5092 155.336 92.501 154.093 92.501H143.692C142.448 92.501 141.44 93.5092 141.44 94.7529V107.698H138.389C136.382 107.698 135.377 110.123 136.796 111.542L147.3 122.046C148.179 122.925 149.605 122.925 150.485 122.046Z" fill="white"/>
<path d="M66.5156 93.1606L56.0118 103.664C54.593 105.083 55.5979 107.509 57.6043 107.509H60.6556V120.453C60.6556 121.697 61.6639 122.705 62.9076 122.705H73.3083C74.552 122.705 75.5603 121.697 75.5603 120.453V107.509H78.6116C80.6179 107.509 81.6229 105.083 80.2041 103.664L69.7002 93.1606C68.8211 92.2811 67.3951 92.2811 66.5156 93.1606Z" fill="white"/>
<path d="M85.8938 49.9294C85.5113 49.9294 85.1291 49.7836 84.8371 49.4919L81.55 46.2048C80.9664 45.6212 80.9664 44.6751 81.55 44.0918L84.8371 40.8047C85.4207 40.2214 86.3665 40.2214 86.9501 40.8047L90.2372 44.0918C90.8209 44.6754 90.8209 45.6215 90.2372 46.2048L86.9501 49.4919C86.6585 49.7836 86.2763 49.9294 85.8938 49.9294ZM84.7197 45.1481L85.8938 46.3222L87.0679 45.1481L85.8938 43.974L84.7197 45.1481Z" fill="#6583FE"/>
<path d="M129.558 54.0327C129.175 54.0327 128.793 53.8868 128.501 53.5952L125.214 50.3081C124.63 49.7245 124.63 48.7784 125.214 48.1951L128.501 44.9079C129.085 44.3246 130.03 44.3246 130.614 44.9079L133.901 48.1951C134.485 48.7787 134.485 49.7248 133.901 50.3081L130.614 53.5952C130.322 53.8868 129.94 54.0327 129.558 54.0327ZM128.383 49.2514L129.558 50.4255L130.732 49.2514L129.558 48.0773L128.383 49.2514Z" fill="#6583FE"/>
<path d="M132.845 171.851C132.02 171.851 131.351 171.182 131.351 170.357C131.351 169.368 130.546 168.564 129.558 168.564C128.733 168.564 128.063 167.895 128.063 167.07C128.063 166.245 128.733 165.576 129.558 165.576C130.546 165.576 131.351 164.772 131.351 163.783C131.351 162.958 132.02 162.289 132.845 162.289C133.67 162.289 134.339 162.958 134.339 163.783C134.339 164.772 135.143 165.576 136.132 165.576C136.957 165.576 137.626 166.245 137.626 167.07C137.626 167.895 136.957 168.564 136.132 168.564C135.143 168.564 134.339 169.368 134.339 170.357C134.339 171.182 133.67 171.851 132.845 171.851Z" fill="#6583FE"/>
<path d="M168.871 125.791C168.046 125.791 167.376 125.122 167.376 124.297C167.376 123.308 166.572 122.504 165.583 122.504C164.758 122.504 164.089 121.835 164.089 121.01C164.089 120.185 164.758 119.516 165.583 119.516C166.572 119.516 167.376 118.712 167.376 117.723C167.376 116.898 168.046 116.229 168.871 116.229C169.696 116.229 170.365 116.898 170.365 117.723C170.365 118.712 171.169 119.516 172.158 119.516C172.983 119.516 173.652 120.185 173.652 121.01C173.652 121.835 172.983 122.504 172.158 122.504C171.169 122.504 170.365 123.308 170.365 124.297C170.365 125.122 169.696 125.791 168.871 125.791Z" fill="#6583FE"/>
<path d="M48.811 134.779C47.986 134.779 47.3169 134.11 47.3169 133.285C47.3169 132.296 46.5124 131.492 45.5239 131.492C44.6989 131.492 44.0298 130.823 44.0298 129.998C44.0298 129.173 44.6989 128.504 45.5239 128.504C46.5127 128.504 47.3169 127.7 47.3169 126.711C47.3169 125.886 47.986 125.217 48.811 125.217C49.6361 125.217 50.3052 125.886 50.3052 126.711C50.3052 127.7 51.1096 128.504 52.0981 128.504C52.9232 128.504 53.5923 129.173 53.5923 129.998C53.5923 130.823 52.9232 131.492 52.0981 131.492C51.1096 131.492 50.3052 132.296 50.3052 133.285C50.3052 134.11 49.6364 134.779 48.811 134.779Z" fill="#6583FE"/>
<path d="M145.427 72.7893C148.169 75.0604 151.685 76.4272 155.516 76.4272C164.249 76.4272 171.355 69.3217 171.355 60.5879C171.355 51.854 164.249 44.7488 155.516 44.7488C146.782 44.7488 139.676 51.8543 139.676 60.5879C139.676 64.4179 141.043 67.9346 143.314 70.6763L138.486 75.5045C134.609 71.8818 130.076 68.9542 125.082 66.9167C125.013 66.0274 124.637 65.2 123.999 64.5623L113.496 54.0588C112.42 52.9833 110.818 52.6653 109.413 53.2466C108.008 53.8284 107.1 55.1871 107.1 56.7076V58.2648H95.6495C93.5837 58.2648 91.9031 59.9454 91.9031 62.0112V66.9236C86.9189 68.9592 82.3905 71.8863 78.5162 75.5072L73.6853 70.6763C75.9564 67.9346 77.3232 64.4179 77.3232 60.5879C77.3232 51.854 70.2177 44.7488 61.4839 44.7488C52.75 44.7488 45.6448 51.8543 45.6448 60.5879C45.6448 69.3217 52.7503 76.4272 61.4839 76.4272C65.3139 76.4272 68.8303 75.0604 71.5723 72.7893L76.4032 77.6202C72.7787 81.4984 69.849 86.0322 67.813 91.0229C66.9542 91.0901 66.1139 91.4487 65.4586 92.1044L54.9551 102.608C53.8799 103.683 53.561 105.286 54.1428 106.691C54.7247 108.096 56.0834 109.003 57.6039 109.003H60.6552C61.4803 109.003 62.1494 108.334 62.1494 107.509C62.1494 106.684 61.4803 106.015 60.6552 106.015H57.6042C57.1473 106.015 56.9623 105.688 56.904 105.547C56.8458 105.406 56.745 105.044 57.0684 104.721L67.5719 94.2177C67.8671 93.9221 68.3485 93.9221 68.6438 94.2177L79.1473 104.721C79.4706 105.045 79.3699 105.407 79.3117 105.547C79.2534 105.688 79.0687 106.015 78.6115 106.015H75.5602C74.7351 106.015 74.066 106.684 74.066 107.509V120.454C74.066 120.872 73.726 121.212 73.3082 121.212H62.9078C62.4897 121.212 62.1497 120.872 62.1497 120.454V117.568C62.1497 116.743 61.4806 116.074 60.6555 116.074C59.8304 116.074 59.1614 116.743 59.1614 117.568V120.454C59.1614 122.52 60.842 124.2 62.9078 124.2H67.8202C69.8567 129.187 72.7835 133.714 76.4035 137.587L71.5729 142.418C68.8312 140.147 65.3145 138.78 61.4845 138.78C52.7506 138.78 45.6454 145.886 45.6454 154.619C45.6454 163.353 52.7509 170.459 61.4845 170.459C70.2183 170.459 77.3238 163.353 77.3238 154.619C77.3238 150.789 75.957 147.273 73.6859 144.531L78.5156 139.701C82.3935 143.326 86.9276 146.254 91.918 148.29C91.9867 149.18 92.3633 150.007 93.001 150.645L103.505 161.149C104.223 161.867 105.177 162.248 106.15 162.248C106.633 162.248 107.121 162.154 107.588 161.961C108.992 161.379 109.9 160.02 109.9 158.5V156.943H121.351C123.417 156.943 125.097 155.262 125.097 153.196V148.28C130.079 146.246 134.601 143.343 138.489 139.705L143.315 144.531C141.044 147.273 139.677 150.789 139.677 154.619C139.677 163.353 146.782 170.459 155.516 170.459C164.25 170.459 171.355 163.353 171.355 154.619C171.355 145.886 164.25 138.78 155.516 138.78C151.686 138.78 148.169 140.147 145.428 142.418L140.602 137.592C142.028 136.063 143.354 134.429 144.564 132.692C145.036 132.015 144.87 131.084 144.193 130.612C143.516 130.14 142.584 130.306 142.113 130.983C137.797 137.176 131.94 142.002 125.097 145.035V142.796C125.097 140.73 123.417 139.05 121.351 139.05H109.9V137.492C109.9 135.972 108.992 134.613 107.588 134.031C106.184 133.45 104.58 133.768 103.505 134.843L93.0013 145.347C92.9642 145.384 92.9313 145.425 92.8961 145.463C83.1749 141.451 75.3298 133.797 71.0679 124.2H73.3088C75.3746 124.2 77.0549 122.52 77.0549 120.454V109.003H78.6121C80.1325 109.003 81.4913 108.096 82.0731 106.691C82.6549 105.286 82.3364 103.683 81.2612 102.608L70.7577 92.1044C70.7206 92.0673 70.6806 92.0353 70.6424 92.0004C74.6541 82.2786 82.3128 74.4308 91.904 70.1707V72.4119C91.904 74.4777 93.5846 76.158 95.6504 76.158H107.101V77.7152C107.101 79.2356 108.009 80.5944 109.414 81.1762C109.88 81.3693 110.368 81.4634 110.851 81.4631C111.824 81.4631 112.778 81.0824 113.496 80.364L124 69.8605C124.037 69.8231 124.07 69.7825 124.106 69.744C133.835 73.7584 141.672 81.4063 145.934 91.0068H143.693C141.627 91.0068 139.947 92.6874 139.947 94.7532V106.204H138.389C136.869 106.204 135.51 107.112 134.928 108.516C134.347 109.921 134.665 111.524 135.74 112.599L146.244 123.103C146.951 123.81 147.892 124.2 148.893 124.2C149.894 124.2 150.834 123.81 151.542 123.103L162.046 112.599C163.121 111.524 163.44 109.921 162.858 108.516C162.276 107.112 160.917 106.204 159.397 106.204H157.84V94.7532C157.84 92.6874 156.159 91.0068 154.093 91.0068H149.181C147.144 86.0178 144.218 81.49 140.599 77.6178L145.427 72.7893ZM168.366 154.619C168.366 161.705 162.602 167.47 155.516 167.47C148.429 167.47 142.664 161.705 142.664 154.619C142.664 147.533 148.429 141.768 155.516 141.768C162.602 141.768 168.366 147.533 168.366 154.619ZM95.114 147.46L105.617 136.956C105.794 136.78 105.981 136.73 106.138 136.73C106.269 136.73 106.38 136.765 106.444 136.792C106.585 136.85 106.911 137.035 106.911 137.492V140.543C106.911 141.368 107.58 142.037 108.406 142.037H121.35C121.768 142.037 122.108 142.377 122.108 142.795V153.196C122.108 153.614 121.768 153.954 121.35 153.954H108.406C107.58 153.954 106.911 154.623 106.911 155.448V158.499C106.911 158.956 106.584 159.141 106.443 159.199C106.303 159.258 105.941 159.358 105.617 159.035L95.114 148.531H95.1137C94.9206 148.338 94.8917 148.113 94.8917 147.995C94.8917 147.878 94.9206 147.653 95.114 147.46ZM61.4845 167.47C54.3983 167.47 48.6337 161.705 48.6337 154.619C48.6337 147.533 54.3986 141.768 61.4845 141.768C68.5703 141.768 74.3356 147.533 74.3356 154.619C74.3356 161.705 68.5706 167.47 61.4845 167.47ZM48.6337 60.5879C48.6337 53.5018 54.3986 47.7371 61.4845 47.7371C68.5703 47.7371 74.3356 53.5021 74.3356 60.5879C74.3356 67.6737 68.5706 73.439 61.4845 73.439C54.3983 73.439 48.6337 67.674 48.6337 60.5879ZM154.85 94.7532V107.698C154.85 108.523 155.519 109.192 156.344 109.192H159.396C159.853 109.192 160.038 109.519 160.096 109.66C160.154 109.801 160.255 110.163 159.932 110.486L149.428 120.989V120.99C149.234 121.183 149.009 121.212 148.892 121.212C148.775 121.212 148.549 121.183 148.356 120.99L137.852 110.486C137.529 110.163 137.63 109.801 137.688 109.66C137.746 109.519 137.931 109.192 138.388 109.192H141.44C142.265 109.192 142.934 108.523 142.934 107.698V94.7535C142.934 94.3354 143.274 93.9954 143.691 93.9954H154.092C154.51 93.9951 154.85 94.3351 154.85 94.7532ZM155.516 47.7371C162.602 47.7371 168.366 53.5021 168.366 60.5879C168.366 67.6737 162.602 73.439 155.516 73.439C148.429 73.439 142.664 67.674 142.664 60.5879C142.664 53.5018 148.429 47.7371 155.516 47.7371ZM121.886 67.7475L111.382 78.251C111.059 78.5743 110.697 78.4736 110.556 78.4154C110.415 78.3571 110.089 78.1724 110.089 77.7152V74.6639C110.089 73.8388 109.419 73.1697 108.594 73.1697H95.6498C95.2317 73.1697 94.8917 72.8297 94.8917 72.4119V62.0112C94.8917 61.5931 95.2317 61.2531 95.6498 61.2531H108.594C109.419 61.2531 110.089 60.584 110.089 59.7589V56.7076C110.089 56.2507 110.416 56.0657 110.557 56.0074C110.697 55.9492 111.06 55.8487 111.382 56.1718L121.886 66.6753H121.886C122.079 66.8683 122.108 67.0939 122.108 67.2111C122.108 67.3285 122.079 67.5541 121.886 67.7475Z" fill="#2626BC"/>
</g>
<circle cx="108" cy="108" r="106.5" stroke="#0000CC" stroke-width="3"/>
<defs>
<linearGradient id="paint0_linear" x1="33.6134" y1="108.5" x2="183.387" y2="108.5" gradientUnits="userSpaceOnUse">
<stop stop-color="#D2DEFF" stop-opacity="0"/>
<stop offset="1" stop-color="#B7C5FF"/>
</linearGradient>
<clipPath id="clip0">
<rect width="153" height="153" fill="white" transform="translate(32 32)"/>
</clipPath>
</defs>
</svg>
